<svg viewBox="0 0 22 22" xmlns="http://www.w3.org/2000/svg">
<rect x="0" y="0" width="22" height="22" fill="#ffffff" opacity="0.5"></rect>

    <polygon points="0,0 1.105,-0.5525 2.21,0 1.105,0.5525" fill="#273300" opacity="0.5"></polygon>
    <polygon points="0,0 0,1.105 1.105,1.6575 1.105,0.5525" fill="#141900" opacity="0.5"></polygon>
    <polygon points="1.105,0.5525 1.105,1.6575 2.21,1.105 2.21,0" fill="#1e2600" opacity="0.5"></polygon>

    <polygon points="2.21,0 3.315,-0.5525 4.42,0 3.315,0.5525" fill="#273300" opacity="0.5"></polygon>
    <polygon points="2.21,0 2.21,1.105 3.315,1.6575 3.315,0.5525" fill="#141900" opacity="0.5"></polygon>
    <polygon points="3.315,0.5525 3.315,1.6575 4.42,1.105 4.42,0" fill="#1e2600" opacity="0.5"></polygon>

    <polygon points="4.42,0 5.525,-0.5525 6.630000000000001,0 5.525,0.5525" fill="#273300" opacity="0.5"></polygon>
    <polygon points="4.42,0 4.42,1.105 5.525,1.6575 5.525,0.5525" fill="#141900" opacity="0.5"></polygon>
    <polygon points="5.525,0.5525 5.525,1.6575 6.630000000000001,1.105 6.630000000000001,0" fill="#1e2600" opacity="0.5"></polygon>

    <polygon points="6.629999999999999,0 7.734999999999999,-0.5525 8.84,0 7.734999999999999,0.5525" fill="#273300" opacity="0.5"></polygon>
    <polygon points="6.629999999999999,0 6.629999999999999,1.105 7.734999999999999,1.6575 7.734999999999999,0.5525" fill="#141900" opacity="0.5"></polygon>
    <polygon points="7.734999999999999,0.5525 7.734999999999999,1.6575 8.84,1.105 8.84,0" fill="#1e2600" opacity="0.5"></polygon>

    <polygon points="8.84,0 9.945,-0.5525 11.05,0 9.945,0.5525" fill="#273300" opacity="0.5"></polygon>
    <polygon points="8.84,0 8.84,1.105 9.945,1.6575 9.945,0.5525" fill="#141900" opacity="0.5"></polygon>
    <polygon points="9.945,0.5525 9.945,1.6575 11.05,1.105 11.05,0" fill="#1e2600" opacity="0.5"></polygon>

    <polygon points="11.05,0 12.155000000000001,-0.5525 13.260000000000002,0 12.155000000000001,0.5525" fill="#273300" opacity="0.5"></polygon>
    <polygon points="11.05,0 11.05,1.105 12.155000000000001,1.6575 12.155000000000001,0.5525" fill="#141900" opacity="0.5"></polygon>
    <polygon points="12.155000000000001,0.5525 12.155000000000001,1.6575 13.260000000000002,1.105 13.260000000000002,0" fill="#1e2600" opacity="0.5"></polygon>

    <polygon points="13.26,0 14.365,-0.5525 15.47,0 14.365,0.5525" fill="#273300" opacity="0.5"></polygon>
    <polygon points="13.26,0 13.26,1.105 14.365,1.6575 14.365,0.5525" fill="#141900" opacity="0.5"></polygon>
    <polygon points="14.365,0.5525 14.365,1.6575 15.47,1.105 15.47,0" fill="#1e2600" opacity="0.5"></polygon>

    <polygon points="15.469999999999999,0 16.575,-0.5525 17.68,0 16.575,0.5525" fill="#273300" opacity="0.5"></polygon>
    <polygon points="15.469999999999999,0 15.469999999999999,1.105 16.575,1.6575 16.575,0.5525" fill="#141900" opacity="0.5"></polygon>
    <polygon points="16.575,0.5525 16.575,1.6575 17.68,1.105 17.68,0" fill="#1e2600" opacity="0.5"></polygon>

    <polygon points="17.68,0 18.785,-0.5525 19.89,0 18.785,0.5525" fill="#273300" opacity="0.5"></polygon>
    <polygon points="17.68,0 17.68,1.105 18.785,1.6575 18.785,0.5525" fill="#141900" opacity="0.5"></polygon>
    <polygon points="18.785,0.5525 18.785,1.6575 19.89,1.105 19.89,0" fill="#1e2600" opacity="0.5"></polygon>

    <polygon points="19.89,0 20.995,-0.5525 22.1,0 20.995,0.5525" fill="#ff9900" opacity="0.5"></polygon>
    <polygon points="19.89,0 19.89,1.105 20.995,1.6575 20.995,0.5525" fill="#cc7a00" opacity="0.5"></polygon>
    <polygon points="20.995,0.5525 20.995,1.6575 22.1,1.105 22.1,0" fill="#ffad33" opacity="0.5"></polygon>

    <polygon points="-1.105,1.6575 0,1.105 1.105,1.6575 0,2.21" fill="#273300" opacity="0.5"></polygon>
    <polygon points="-1.105,1.6575 -1.105,2.7625 0,3.315 0,2.21" fill="#141900" opacity="0.5"></polygon>
    <polygon points="0,2.21 0,3.315 1.105,2.7625 1.105,1.6575" fill="#1e2600" opacity="0.5"></polygon>

    <polygon points="1.105,1.6575 2.21,1.105 3.315,1.6575 2.21,2.21" fill="#273300" opacity="0.5"></polygon>
    <polygon points="1.105,1.6575 1.105,2.7625 2.21,3.315 2.21,2.21" fill="#141900" opacity="0.5"></polygon>
    <polygon points="2.21,2.21 2.21,3.315 3.315,2.7625 3.315,1.6575" fill="#1e2600" opacity="0.5"></polygon>

    <polygon points="3.315,1.6575 4.42,1.105 5.525,1.6575 4.42,2.21" fill="#273300" opacity="0.5"></polygon>
    <polygon points="3.315,1.6575 3.315,2.7625 4.42,3.315 4.42,2.21" fill="#141900" opacity="0.5"></polygon>
    <polygon points="4.42,2.21 4.42,3.315 5.525,2.7625 5.525,1.6575" fill="#1e2600" opacity="0.5"></polygon>

    <polygon points="5.524999999999999,1.6575 6.629999999999999,1.105 7.734999999999999,1.6575 6.629999999999999,2.21" fill="#273300" opacity="0.5"></polygon>
    <polygon points="5.524999999999999,1.6575 5.524999999999999,2.7625 6.629999999999999,3.315 6.629999999999999,2.21" fill="#141900" opacity="0.5"></polygon>
    <polygon points="6.629999999999999,2.21 6.629999999999999,3.315 7.734999999999999,2.7625 7.734999999999999,1.6575" fill="#1e2600" opacity="0.5"></polygon>

    <polygon points="7.734999999999999,1.6575 8.84,1.105 9.945,1.6575 8.84,2.21" fill="#273300" opacity="0.5"></polygon>
    <polygon points="7.734999999999999,1.6575 7.734999999999999,2.7625 8.84,3.315 8.84,2.21" fill="#141900" opacity="0.5"></polygon>
    <polygon points="8.84,2.21 8.84,3.315 9.945,2.7625 9.945,1.6575" fill="#1e2600" opacity="0.5"></polygon>

    <polygon points="9.945,1.6575 11.05,1.105 12.155000000000001,1.6575 11.05,2.21" fill="#273300" opacity="0.5"></polygon>
    <polygon points="9.945,1.6575 9.945,2.7625 11.05,3.315 11.05,2.21" fill="#141900" opacity="0.5"></polygon>
    <polygon points="11.05,2.21 11.05,3.315 12.155000000000001,2.7625 12.155000000000001,1.6575" fill="#1e2600" opacity="0.5"></polygon>

    <polygon points="12.155,1.6575 13.26,1.105 14.365,1.6575 13.26,2.21" fill="#273300" opacity="0.5"></polygon>
    <polygon points="12.155,1.6575 12.155,2.7625 13.26,3.315 13.26,2.21" fill="#141900" opacity="0.5"></polygon>
    <polygon points="13.26,2.21 13.26,3.315 14.365,2.7625 14.365,1.6575" fill="#1e2600" opacity="0.5"></polygon>

    <polygon points="14.364999999999998,1.6575 15.469999999999999,1.105 16.575,1.6575 15.469999999999999,2.21" fill="#273300" opacity="0.5"></polygon>
    <polygon points="14.364999999999998,1.6575 14.364999999999998,2.7625 15.469999999999999,3.315 15.469999999999999,2.21" fill="#141900" opacity="0.5"></polygon>
    <polygon points="15.469999999999999,2.21 15.469999999999999,3.315 16.575,2.7625 16.575,1.6575" fill="#1e2600" opacity="0.5"></polygon>

    <polygon points="16.575,1.6575 17.68,1.105 18.785,1.6575 17.68,2.21" fill="#273300" opacity="0.5"></polygon>
    <polygon points="16.575,1.6575 16.575,2.7625 17.68,3.315 17.68,2.21" fill="#141900" opacity="0.5"></polygon>
    <polygon points="17.68,2.21 17.68,3.315 18.785,2.7625 18.785,1.6575" fill="#1e2600" opacity="0.5"></polygon>

    <polygon points="18.785,1.6575 19.89,1.105 20.995,1.6575 19.89,2.21" fill="#273300" opacity="0.5"></polygon>
    <polygon points="18.785,1.6575 18.785,2.7625 19.89,3.315 19.89,2.21" fill="#141900" opacity="0.5"></polygon>
    <polygon points="19.89,2.21 19.89,3.315 20.995,2.7625 20.995,1.6575" fill="#1e2600" opacity="0.5"></polygon>

    <polygon points="20.995,1.6575 22.1,1.105 23.205000000000002,1.6575 22.1,2.21" fill="#273300" opacity="0.5"></polygon>
    <polygon points="20.995,1.6575 20.995,2.7625 22.1,3.315 22.1,2.21" fill="#141900" opacity="0.5"></polygon>
    <polygon points="22.1,2.21 22.1,3.315 23.205000000000002,2.7625 23.205000000000002,1.6575" fill="#1e2600" opacity="0.5"></polygon>

    <polygon points="0,3.3149999999999995 1.105,2.7624999999999997 2.21,3.3149999999999995 1.105,3.8674999999999997" fill="#273300" opacity="0.5"></polygon>
    <polygon points="0,3.3149999999999995 0,4.42 1.105,4.9725 1.105,3.8674999999999997" fill="#141900" opacity="0.5"></polygon>
    <polygon points="1.105,3.8674999999999997 1.105,4.9725 2.21,4.42 2.21,3.3149999999999995" fill="#1e2600" opacity="0.5"></polygon>

    <polygon points="2.2100000000000004,3.3149999999999995 3.3150000000000004,2.7624999999999997 4.42,3.3149999999999995 3.3150000000000004,3.8674999999999997" fill="#273300" opacity="0.5"></polygon>
    <polygon points="2.2100000000000004,3.3149999999999995 2.2100000000000004,4.42 3.3150000000000004,4.9725 3.3150000000000004,3.8674999999999997" fill="#141900" opacity="0.5"></polygon>
    <polygon points="3.3150000000000004,3.8674999999999997 3.3150000000000004,4.9725 4.42,4.42 4.42,3.3149999999999995" fill="#1e2600" opacity="0.5"></polygon>

    <polygon points="4.42,3.3149999999999995 5.5249999999999995,2.7624999999999997 6.629999999999999,3.3149999999999995 5.5249999999999995,3.8674999999999997" fill="#273300" opacity="0.5"></polygon>
    <polygon points="4.42,3.3149999999999995 4.42,4.42 5.5249999999999995,4.9725 5.5249999999999995,3.8674999999999997" fill="#141900" opacity="0.5"></polygon>
    <polygon points="5.5249999999999995,3.8674999999999997 5.5249999999999995,4.9725 6.629999999999999,4.42 6.629999999999999,3.3149999999999995" fill="#1e2600" opacity="0.5"></polygon>

    <polygon points="6.630000000000001,3.3149999999999995 7.735,2.7624999999999997 8.84,3.3149999999999995 7.735,3.8674999999999997" fill="#273300" opacity="0.5"></polygon>
    <polygon points="6.630000000000001,3.3149999999999995 6.630000000000001,4.42 7.735,4.9725 7.735,3.8674999999999997" fill="#141900" opacity="0.5"></polygon>
    <polygon points="7.735,3.8674999999999997 7.735,4.9725 8.84,4.42 8.84,3.3149999999999995" fill="#1e2600" opacity="0.5"></polygon>

    <polygon points="8.84,3.3149999999999995 9.945,2.7624999999999997 11.05,3.3149999999999995 9.945,3.8674999999999997" fill="#273300" opacity="0.5"></polygon>
    <polygon points="8.84,3.3149999999999995 8.84,4.42 9.945,4.9725 9.945,3.8674999999999997" fill="#141900" opacity="0.5"></polygon>
    <polygon points="9.945,3.8674999999999997 9.945,4.9725 11.05,4.42 11.05,3.3149999999999995" fill="#1e2600" opacity="0.5"></polygon>

    <polygon points="11.05,3.3149999999999995 12.155000000000001,2.7624999999999997 13.260000000000002,3.3149999999999995 12.155000000000001,3.8674999999999997" fill="#273300" opacity="0.5"></polygon>
    <polygon points="11.05,3.3149999999999995 11.05,4.42 12.155000000000001,4.9725 12.155000000000001,3.8674999999999997" fill="#141900" opacity="0.5"></polygon>
    <polygon points="12.155000000000001,3.8674999999999997 12.155000000000001,4.9725 13.260000000000002,4.42 13.260000000000002,3.3149999999999995" fill="#1e2600" opacity="0.5"></polygon>

    <polygon points="13.259999999999998,3.3149999999999995 14.364999999999998,2.7624999999999997 15.469999999999999,3.3149999999999995 14.364999999999998,3.8674999999999997" fill="#273300" opacity="0.5"></polygon>
    <polygon points="13.259999999999998,3.3149999999999995 13.259999999999998,4.42 14.364999999999998,4.9725 14.364999999999998,3.8674999999999997" fill="#141900" opacity="0.5"></polygon>
    <polygon points="14.364999999999998,3.8674999999999997 14.364999999999998,4.9725 15.469999999999999,4.42 15.469999999999999,3.3149999999999995" fill="#1e2600" opacity="0.5"></polygon>

    <polygon points="15.469999999999999,3.3149999999999995 16.575,2.7624999999999997 17.68,3.3149999999999995 16.575,3.8674999999999997" fill="#273300" opacity="0.5"></polygon>
    <polygon points="15.469999999999999,3.3149999999999995 15.469999999999999,4.42 16.575,4.9725 16.575,3.8674999999999997" fill="#141900" opacity="0.5"></polygon>
    <polygon points="16.575,3.8674999999999997 16.575,4.9725 17.68,4.42 17.68,3.3149999999999995" fill="#1e2600" opacity="0.5"></polygon>

    <polygon points="17.68,3.3149999999999995 18.785,2.7624999999999997 19.89,3.3149999999999995 18.785,3.8674999999999997" fill="#273300" opacity="0.5"></polygon>
    <polygon points="17.68,3.3149999999999995 17.68,4.42 18.785,4.9725 18.785,3.8674999999999997" fill="#141900" opacity="0.5"></polygon>
    <polygon points="18.785,3.8674999999999997 18.785,4.9725 19.89,4.42 19.89,3.3149999999999995" fill="#1e2600" opacity="0.5"></polygon>

    <polygon points="19.89,3.3149999999999995 20.995,2.7624999999999997 22.1,3.3149999999999995 20.995,3.8674999999999997" fill="#273300" opacity="0.5"></polygon>
    <polygon points="19.89,3.3149999999999995 19.89,4.42 20.995,4.9725 20.995,3.8674999999999997" fill="#141900" opacity="0.5"></polygon>
    <polygon points="20.995,3.8674999999999997 20.995,4.9725 22.1,4.42 22.1,3.3149999999999995" fill="#1e2600" opacity="0.5"></polygon>

    <polygon points="-1.105,4.9725 0,4.42 1.105,4.9725 0,5.525" fill="#273300" opacity="0.5"></polygon>
    <polygon points="-1.105,4.9725 -1.105,6.077500000000001 0,6.630000000000001 0,5.525" fill="#141900" opacity="0.5"></polygon>
    <polygon points="0,5.525 0,6.630000000000001 1.105,6.077500000000001 1.105,4.9725" fill="#1e2600" opacity="0.5"></polygon>

    <polygon points="1.1050000000000004,4.9725 2.2100000000000004,4.42 3.3150000000000004,4.9725 2.2100000000000004,5.525" fill="#273300" opacity="0.5"></polygon>
    <polygon points="1.1050000000000004,4.9725 1.1050000000000004,6.077500000000001 2.2100000000000004,6.630000000000001 2.2100000000000004,5.525" fill="#141900" opacity="0.5"></polygon>
    <polygon points="2.2100000000000004,5.525 2.2100000000000004,6.630000000000001 3.3150000000000004,6.077500000000001 3.3150000000000004,4.9725" fill="#1e2600" opacity="0.5"></polygon>

    <polygon points="3.315,4.9725 4.42,4.42 5.525,4.9725 4.42,5.525" fill="#273300" opacity="0.5"></polygon>
    <polygon points="3.315,4.9725 3.315,6.077500000000001 4.42,6.630000000000001 4.42,5.525" fill="#141900" opacity="0.5"></polygon>
    <polygon points="4.42,5.525 4.42,6.630000000000001 5.525,6.077500000000001 5.525,4.9725" fill="#1e2600" opacity="0.5"></polygon>

    <polygon points="5.525,4.9725 6.630000000000001,4.42 7.735000000000001,4.9725 6.630000000000001,5.525" fill="#273300" opacity="0.5"></polygon>
    <polygon points="5.525,4.9725 5.525,6.077500000000001 6.630000000000001,6.630000000000001 6.630000000000001,5.525" fill="#141900" opacity="0.5"></polygon>
    <polygon points="6.630000000000001,5.525 6.630000000000001,6.630000000000001 7.735000000000001,6.077500000000001 7.735000000000001,4.9725" fill="#1e2600" opacity="0.5"></polygon>

    <polygon points="7.735000000000001,4.9725 8.840000000000002,4.42 9.945000000000002,4.9725 8.840000000000002,5.525" fill="#273300" opacity="0.5"></polygon>
    <polygon points="7.735000000000001,4.9725 7.735000000000001,6.077500000000001 8.840000000000002,6.630000000000001 8.840000000000002,5.525" fill="#141900" opacity="0.5"></polygon>
    <polygon points="8.840000000000002,5.525 8.840000000000002,6.630000000000001 9.945000000000002,6.077500000000001 9.945000000000002,4.9725" fill="#1e2600" opacity="0.5"></polygon>

    <polygon points="9.945,4.9725 11.05,4.42 12.155000000000001,4.9725 11.05,5.525" fill="#273300" opacity="0.5"></polygon>
    <polygon points="9.945,4.9725 9.945,6.077500000000001 11.05,6.630000000000001 11.05,5.525" fill="#141900" opacity="0.5"></polygon>
    <polygon points="11.05,5.525 11.05,6.630000000000001 12.155000000000001,6.077500000000001 12.155000000000001,4.9725" fill="#1e2600" opacity="0.5"></polygon>

    <polygon points="12.155,4.9725 13.26,4.42 14.365,4.9725 13.26,5.525" fill="#273300" opacity="0.5"></polygon>
    <polygon points="12.155,4.9725 12.155,6.077500000000001 13.26,6.630000000000001 13.26,5.525" fill="#141900" opacity="0.5"></polygon>
    <polygon points="13.26,5.525 13.26,6.630000000000001 14.365,6.077500000000001 14.365,4.9725" fill="#1e2600" opacity="0.5"></polygon>

    <polygon points="14.365,4.9725 15.47,4.42 16.575,4.9725 15.47,5.525" fill="#273300" opacity="0.5"></polygon>
    <polygon points="14.365,4.9725 14.365,6.077500000000001 15.47,6.630000000000001 15.47,5.525" fill="#141900" opacity="0.5"></polygon>
    <polygon points="15.47,5.525 15.47,6.630000000000001 16.575,6.077500000000001 16.575,4.9725" fill="#1e2600" opacity="0.5"></polygon>

    <polygon points="16.575,4.9725 17.68,4.42 18.785,4.9725 17.68,5.525" fill="#273300" opacity="0.5"></polygon>
    <polygon points="16.575,4.9725 16.575,6.077500000000001 17.68,6.630000000000001 17.68,5.525" fill="#141900" opacity="0.5"></polygon>
    <polygon points="17.68,5.525 17.68,6.630000000000001 18.785,6.077500000000001 18.785,4.9725" fill="#1e2600" opacity="0.5"></polygon>

    <polygon points="18.785,4.9725 19.89,4.42 20.995,4.9725 19.89,5.525" fill="#273300" opacity="0.5"></polygon>
    <polygon points="18.785,4.9725 18.785,6.077500000000001 19.89,6.630000000000001 19.89,5.525" fill="#141900" opacity="0.5"></polygon>
    <polygon points="19.89,5.525 19.89,6.630000000000001 20.995,6.077500000000001 20.995,4.9725" fill="#1e2600" opacity="0.5"></polygon>

    <polygon points="20.994999999999997,4.9725 22.099999999999998,4.42 23.205,4.9725 22.099999999999998,5.525" fill="#273300" opacity="0.5"></polygon>
    <polygon points="20.994999999999997,4.9725 20.994999999999997,6.077500000000001 22.099999999999998,6.630000000000001 22.099999999999998,5.525" fill="#141900" opacity="0.5"></polygon>
    <polygon points="22.099999999999998,5.525 22.099999999999998,6.630000000000001 23.205,6.077500000000001 23.205,4.9725" fill="#1e2600" opacity="0.5"></polygon>

    <polygon points="4.440892098500626e-16,6.63 1.1050000000000004,6.077500000000001 2.2100000000000004,6.63 1.1050000000000004,7.1825" fill="#273300" opacity="0.5"></polygon>
    <polygon points="4.440892098500626e-16,6.63 4.440892098500626e-16,7.735 1.1050000000000004,8.2875 1.1050000000000004,7.1825" fill="#141900" opacity="0.5"></polygon>
    <polygon points="1.1050000000000004,7.1825 1.1050000000000004,8.2875 2.2100000000000004,7.735 2.2100000000000004,6.63" fill="#1e2600" opacity="0.5"></polygon>

    <polygon points="2.2099999999999995,6.63 3.3149999999999995,6.077500000000001 4.42,6.63 3.3149999999999995,7.1825" fill="#273300" opacity="0.5"></polygon>
    <polygon points="2.2099999999999995,6.63 2.2099999999999995,7.735 3.3149999999999995,8.2875 3.3149999999999995,7.1825" fill="#141900" opacity="0.5"></polygon>
    <polygon points="3.3149999999999995,7.1825 3.3149999999999995,8.2875 4.42,7.735 4.42,6.63" fill="#1e2600" opacity="0.5"></polygon>

    <polygon points="4.42,6.63 5.525,6.077500000000001 6.630000000000001,6.63 5.525,7.1825" fill="#273300" opacity="0.5"></polygon>
    <polygon points="4.42,6.63 4.42,7.735 5.525,8.2875 5.525,7.1825" fill="#141900" opacity="0.5"></polygon>
    <polygon points="5.525,7.1825 5.525,8.2875 6.630000000000001,7.735 6.630000000000001,6.63" fill="#1e2600" opacity="0.5"></polygon>

    <polygon points="6.630000000000001,6.63 7.735000000000001,6.077500000000001 8.840000000000002,6.63 7.735000000000001,7.1825" fill="#273300" opacity="0.5"></polygon>
    <polygon points="6.630000000000001,6.63 6.630000000000001,7.735 7.735000000000001,8.2875 7.735000000000001,7.1825" fill="#141900" opacity="0.5"></polygon>
    <polygon points="7.735000000000001,7.1825 7.735000000000001,8.2875 8.840000000000002,7.735 8.840000000000002,6.63" fill="#1e2600" opacity="0.5"></polygon>

    <polygon points="8.84,6.63 9.945,6.077500000000001 11.05,6.63 9.945,7.1825" fill="#273300" opacity="0.5"></polygon>
    <polygon points="8.84,6.63 8.84,7.735 9.945,8.2875 9.945,7.1825" fill="#141900" opacity="0.5"></polygon>
    <polygon points="9.945,7.1825 9.945,8.2875 11.05,7.735 11.05,6.63" fill="#1e2600" opacity="0.5"></polygon>

    <polygon points="11.049999999999999,6.63 12.155,6.077500000000001 13.26,6.63 12.155,7.1825" fill="#273300" opacity="0.5"></polygon>
    <polygon points="11.049999999999999,6.63 11.049999999999999,7.735 12.155,8.2875 12.155,7.1825" fill="#141900" opacity="0.5"></polygon>
    <polygon points="12.155,7.1825 12.155,8.2875 13.26,7.735 13.26,6.63" fill="#1e2600" opacity="0.5"></polygon>

    <polygon points="13.26,6.63 14.365,6.077500000000001 15.47,6.63 14.365,7.1825" fill="#273300" opacity="0.5"></polygon>
    <polygon points="13.26,6.63 13.26,7.735 14.365,8.2875 14.365,7.1825" fill="#141900" opacity="0.5"></polygon>
    <polygon points="14.365,7.1825 14.365,8.2875 15.47,7.735 15.47,6.63" fill="#1e2600" opacity="0.5"></polygon>

    <polygon points="15.470000000000002,6.63 16.575000000000003,6.077500000000001 17.680000000000003,6.63 16.575000000000003,7.1825" fill="#273300" opacity="0.5"></polygon>
    <polygon points="15.470000000000002,6.63 15.470000000000002,7.735 16.575000000000003,8.2875 16.575000000000003,7.1825" fill="#141900" opacity="0.5"></polygon>
    <polygon points="16.575000000000003,7.1825 16.575000000000003,8.2875 17.680000000000003,7.735 17.680000000000003,6.63" fill="#1e2600" opacity="0.5"></polygon>

    <polygon points="17.680000000000003,6.63 18.785000000000004,6.077500000000001 19.890000000000004,6.63 18.785000000000004,7.1825" fill="#273300" opacity="0.5"></polygon>
    <polygon points="17.680000000000003,6.63 17.680000000000003,7.735 18.785000000000004,8.2875 18.785000000000004,7.1825" fill="#141900" opacity="0.5"></polygon>
    <polygon points="18.785000000000004,7.1825 18.785000000000004,8.2875 19.890000000000004,7.735 19.890000000000004,6.63" fill="#1e2600" opacity="0.5"></polygon>

    <polygon points="19.889999999999997,6.63 20.994999999999997,6.077500000000001 22.099999999999998,6.63 20.994999999999997,7.1825" fill="#273300" opacity="0.5"></polygon>
    <polygon points="19.889999999999997,6.63 19.889999999999997,7.735 20.994999999999997,8.2875 20.994999999999997,7.1825" fill="#141900" opacity="0.5"></polygon>
    <polygon points="20.994999999999997,7.1825 20.994999999999997,8.2875 22.099999999999998,7.735 22.099999999999998,6.63" fill="#1e2600" opacity="0.5"></polygon>

    <polygon points="-1.105,8.287500000000001 0,7.735000000000001 1.105,8.287500000000001 0,8.840000000000002" fill="#273300" opacity="0.5"></polygon>
    <polygon points="-1.105,8.287500000000001 -1.105,9.392500000000002 0,9.945000000000002 0,8.840000000000002" fill="#141900" opacity="0.5"></polygon>
    <polygon points="0,8.840000000000002 0,9.945000000000002 1.105,9.392500000000002 1.105,8.287500000000001" fill="#1e2600" opacity="0.5"></polygon>

    <polygon points="1.104999999999999,8.287500000000001 2.209999999999999,7.735000000000001 3.314999999999999,8.287500000000001 2.209999999999999,8.840000000000002" fill="#273300" opacity="0.5"></polygon>
    <polygon points="1.104999999999999,8.287500000000001 1.104999999999999,9.392500000000002 2.209999999999999,9.945000000000002 2.209999999999999,8.840000000000002" fill="#141900" opacity="0.5"></polygon>
    <polygon points="2.209999999999999,8.840000000000002 2.209999999999999,9.945000000000002 3.314999999999999,9.392500000000002 3.314999999999999,8.287500000000001" fill="#1e2600" opacity="0.5"></polygon>

    <polygon points="3.315,8.287500000000001 4.42,7.735000000000001 5.525,8.287500000000001 4.42,8.840000000000002" fill="#273300" opacity="0.5"></polygon>
    <polygon points="3.315,8.287500000000001 3.315,9.392500000000002 4.42,9.945000000000002 4.42,8.840000000000002" fill="#141900" opacity="0.5"></polygon>
    <polygon points="4.42,8.840000000000002 4.42,9.945000000000002 5.525,9.392500000000002 5.525,8.287500000000001" fill="#1e2600" opacity="0.5"></polygon>

    <polygon points="5.525,8.287500000000001 6.630000000000001,7.735000000000001 7.735000000000001,8.287500000000001 6.630000000000001,8.840000000000002" fill="#273300" opacity="0.5"></polygon>
    <polygon points="5.525,8.287500000000001 5.525,9.392500000000002 6.630000000000001,9.945000000000002 6.630000000000001,8.840000000000002" fill="#141900" opacity="0.5"></polygon>
    <polygon points="6.630000000000001,8.840000000000002 6.630000000000001,9.945000000000002 7.735000000000001,9.392500000000002 7.735000000000001,8.287500000000001" fill="#1e2600" opacity="0.5"></polygon>

    <polygon points="7.734999999999999,8.287500000000001 8.84,7.735000000000001 9.945,8.287500000000001 8.84,8.840000000000002" fill="#273300" opacity="0.5"></polygon>
    <polygon points="7.734999999999999,8.287500000000001 7.734999999999999,9.392500000000002 8.84,9.945000000000002 8.84,8.840000000000002" fill="#141900" opacity="0.5"></polygon>
    <polygon points="8.84,8.840000000000002 8.84,9.945000000000002 9.945,9.392500000000002 9.945,8.287500000000001" fill="#1e2600" opacity="0.5"></polygon>

    <polygon points="9.944999999999999,8.287500000000001 11.049999999999999,7.735000000000001 12.155,8.287500000000001 11.049999999999999,8.840000000000002" fill="#273300" opacity="0.5"></polygon>
    <polygon points="9.944999999999999,8.287500000000001 9.944999999999999,9.392500000000002 11.049999999999999,9.945000000000002 11.049999999999999,8.840000000000002" fill="#141900" opacity="0.5"></polygon>
    <polygon points="11.049999999999999,8.840000000000002 11.049999999999999,9.945000000000002 12.155,9.392500000000002 12.155,8.287500000000001" fill="#1e2600" opacity="0.5"></polygon>

    <polygon points="12.155,8.287500000000001 13.26,7.735000000000001 14.365,8.287500000000001 13.26,8.840000000000002" fill="#273300" opacity="0.5"></polygon>
    <polygon points="12.155,8.287500000000001 12.155,9.392500000000002 13.26,9.945000000000002 13.26,8.840000000000002" fill="#141900" opacity="0.5"></polygon>
    <polygon points="13.26,8.840000000000002 13.26,9.945000000000002 14.365,9.392500000000002 14.365,8.287500000000001" fill="#1e2600" opacity="0.5"></polygon>

    <polygon points="14.365,8.287500000000001 15.47,7.735000000000001 16.575,8.287500000000001 15.47,8.840000000000002" fill="#273300" opacity="0.5"></polygon>
    <polygon points="14.365,8.287500000000001 14.365,9.392500000000002 15.47,9.945000000000002 15.47,8.840000000000002" fill="#141900" opacity="0.5"></polygon>
    <polygon points="15.47,8.840000000000002 15.47,9.945000000000002 16.575,9.392500000000002 16.575,8.287500000000001" fill="#1e2600" opacity="0.5"></polygon>

    <polygon points="16.575,8.287500000000001 17.68,7.735000000000001 18.785,8.287500000000001 17.68,8.840000000000002" fill="#273300" opacity="0.5"></polygon>
    <polygon points="16.575,8.287500000000001 16.575,9.392500000000002 17.68,9.945000000000002 17.68,8.840000000000002" fill="#141900" opacity="0.5"></polygon>
    <polygon points="17.68,8.840000000000002 17.68,9.945000000000002 18.785,9.392500000000002 18.785,8.287500000000001" fill="#1e2600" opacity="0.5"></polygon>

    <polygon points="18.785,8.287500000000001 19.89,7.735000000000001 20.995,8.287500000000001 19.89,8.840000000000002" fill="#273300" opacity="0.5"></polygon>
    <polygon points="18.785,8.287500000000001 18.785,9.392500000000002 19.89,9.945000000000002 19.89,8.840000000000002" fill="#141900" opacity="0.5"></polygon>
    <polygon points="19.89,8.840000000000002 19.89,9.945000000000002 20.995,9.392500000000002 20.995,8.287500000000001" fill="#1e2600" opacity="0.5"></polygon>

    <polygon points="20.995,8.287500000000001 22.1,7.735000000000001 23.205000000000002,8.287500000000001 22.1,8.840000000000002" fill="#273300" opacity="0.5"></polygon>
    <polygon points="20.995,8.287500000000001 20.995,9.392500000000002 22.1,9.945000000000002 22.1,8.840000000000002" fill="#141900" opacity="0.5"></polygon>
    <polygon points="22.1,8.840000000000002 22.1,9.945000000000002 23.205000000000002,9.392500000000002 23.205000000000002,8.287500000000001" fill="#1e2600" opacity="0.5"></polygon>

    <polygon points="-4.440892098500626e-16,9.945 1.1049999999999995,9.3925 2.2099999999999995,9.945 1.1049999999999995,10.4975" fill="#273300" opacity="0.5"></polygon>
    <polygon points="-4.440892098500626e-16,9.945 -4.440892098500626e-16,11.05 1.1049999999999995,11.602500000000001 1.1049999999999995,10.4975" fill="#141900" opacity="0.5"></polygon>
    <polygon points="1.1049999999999995,10.4975 1.1049999999999995,11.602500000000001 2.2099999999999995,11.05 2.2099999999999995,9.945" fill="#1e2600" opacity="0.5"></polygon>

    <polygon points="2.2100000000000004,9.945 3.3150000000000004,9.3925 4.42,9.945 3.3150000000000004,10.4975" fill="#273300" opacity="0.5"></polygon>
    <polygon points="2.2100000000000004,9.945 2.2100000000000004,11.05 3.3150000000000004,11.602500000000001 3.3150000000000004,10.4975" fill="#141900" opacity="0.5"></polygon>
    <polygon points="3.3150000000000004,10.4975 3.3150000000000004,11.602500000000001 4.42,11.05 4.42,9.945" fill="#1e2600" opacity="0.5"></polygon>

    <polygon points="4.420000000000002,9.945 5.525000000000001,9.3925 6.630000000000001,9.945 5.525000000000001,10.4975" fill="#273300" opacity="0.5"></polygon>
    <polygon points="4.420000000000002,9.945 4.420000000000002,11.05 5.525000000000001,11.602500000000001 5.525000000000001,10.4975" fill="#141900" opacity="0.5"></polygon>
    <polygon points="5.525000000000001,10.4975 5.525000000000001,11.602500000000001 6.630000000000001,11.05 6.630000000000001,9.945" fill="#1e2600" opacity="0.5"></polygon>

    <polygon points="6.630000000000001,9.945 7.735,9.3925 8.84,9.945 7.735,10.4975" fill="#273300" opacity="0.5"></polygon>
    <polygon points="6.630000000000001,9.945 6.630000000000001,11.05 7.735,11.602500000000001 7.735,10.4975" fill="#141900" opacity="0.5"></polygon>
    <polygon points="7.735,10.4975 7.735,11.602500000000001 8.84,11.05 8.84,9.945" fill="#1e2600" opacity="0.5"></polygon>

    <polygon points="8.84,9.945 9.945,9.3925 11.05,9.945 9.945,10.4975" fill="#273300" opacity="0.5"></polygon>
    <polygon points="8.84,9.945 8.84,11.05 9.945,11.602500000000001 9.945,10.4975" fill="#141900" opacity="0.5"></polygon>
    <polygon points="9.945,10.4975 9.945,11.602500000000001 11.05,11.05 11.05,9.945" fill="#1e2600" opacity="0.5"></polygon>

    <polygon points="11.05,9.945 12.155000000000001,9.3925 13.260000000000002,9.945 12.155000000000001,10.4975" fill="#273300" opacity="0.5"></polygon>
    <polygon points="11.05,9.945 11.05,11.05 12.155000000000001,11.602500000000001 12.155000000000001,10.4975" fill="#141900" opacity="0.5"></polygon>
    <polygon points="12.155000000000001,10.4975 12.155000000000001,11.602500000000001 13.260000000000002,11.05 13.260000000000002,9.945" fill="#1e2600" opacity="0.5"></polygon>

    <polygon points="13.260000000000002,9.945 14.365000000000002,9.3925 15.470000000000002,9.945 14.365000000000002,10.4975" fill="#273300" opacity="0.5"></polygon>
    <polygon points="13.260000000000002,9.945 13.260000000000002,11.05 14.365000000000002,11.602500000000001 14.365000000000002,10.4975" fill="#141900" opacity="0.5"></polygon>
    <polygon points="14.365000000000002,10.4975 14.365000000000002,11.602500000000001 15.470000000000002,11.05 15.470000000000002,9.945" fill="#1e2600" opacity="0.5"></polygon>

    <polygon points="15.470000000000002,9.945 16.575000000000003,9.3925 17.680000000000003,9.945 16.575000000000003,10.4975" fill="#273300" opacity="0.5"></polygon>
    <polygon points="15.470000000000002,9.945 15.470000000000002,11.05 16.575000000000003,11.602500000000001 16.575000000000003,10.4975" fill="#141900" opacity="0.5"></polygon>
    <polygon points="16.575000000000003,10.4975 16.575000000000003,11.602500000000001 17.680000000000003,11.05 17.680000000000003,9.945" fill="#1e2600" opacity="0.5"></polygon>

    <polygon points="17.68,9.945 18.785,9.3925 19.89,9.945 18.785,10.4975" fill="#273300" opacity="0.5"></polygon>
    <polygon points="17.68,9.945 17.68,11.05 18.785,11.602500000000001 18.785,10.4975" fill="#141900" opacity="0.5"></polygon>
    <polygon points="18.785,10.4975 18.785,11.602500000000001 19.89,11.05 19.89,9.945" fill="#1e2600" opacity="0.5"></polygon>

    <polygon points="19.89,9.945 20.995,9.3925 22.1,9.945 20.995,10.4975" fill="#273300" opacity="0.5"></polygon>
    <polygon points="19.89,9.945 19.89,11.05 20.995,11.602500000000001 20.995,10.4975" fill="#141900" opacity="0.5"></polygon>
    <polygon points="20.995,10.4975 20.995,11.602500000000001 22.1,11.05 22.1,9.945" fill="#1e2600" opacity="0.5"></polygon>

    <polygon points="-1.105,11.6025 0,11.049999999999999 1.105,11.6025 0,12.155" fill="#273300" opacity="0.5"></polygon>
    <polygon points="-1.105,11.6025 -1.105,12.7075 0,13.26 0,12.155" fill="#141900" opacity="0.5"></polygon>
    <polygon points="0,12.155 0,13.26 1.105,12.7075 1.105,11.6025" fill="#1e2600" opacity="0.5"></polygon>

    <polygon points="1.1050000000000009,11.6025 2.210000000000001,11.049999999999999 3.315000000000001,11.6025 2.210000000000001,12.155" fill="#273300" opacity="0.5"></polygon>
    <polygon points="1.1050000000000009,11.6025 1.1050000000000009,12.7075 2.210000000000001,13.26 2.210000000000001,12.155" fill="#141900" opacity="0.5"></polygon>
    <polygon points="2.210000000000001,12.155 2.210000000000001,13.26 3.315000000000001,12.7075 3.315000000000001,11.6025" fill="#1e2600" opacity="0.5"></polygon>

    <polygon points="3.3150000000000017,11.6025 4.420000000000002,11.049999999999999 5.525000000000002,11.6025 4.420000000000002,12.155" fill="#273300" opacity="0.5"></polygon>
    <polygon points="3.3150000000000017,11.6025 3.3150000000000017,12.7075 4.420000000000002,13.26 4.420000000000002,12.155" fill="#141900" opacity="0.5"></polygon>
    <polygon points="4.420000000000002,12.155 4.420000000000002,13.26 5.525000000000002,12.7075 5.525000000000002,11.6025" fill="#1e2600" opacity="0.5"></polygon>

    <polygon points="5.525,11.6025 6.630000000000001,11.049999999999999 7.735000000000001,11.6025 6.630000000000001,12.155" fill="#273300" opacity="0.5"></polygon>
    <polygon points="5.525,11.6025 5.525,12.7075 6.630000000000001,13.26 6.630000000000001,12.155" fill="#141900" opacity="0.5"></polygon>
    <polygon points="6.630000000000001,12.155 6.630000000000001,13.26 7.735000000000001,12.7075 7.735000000000001,11.6025" fill="#1e2600" opacity="0.5"></polygon>

    <polygon points="7.734999999999999,11.6025 8.84,11.049999999999999 9.945,11.6025 8.84,12.155" fill="#273300" opacity="0.5"></polygon>
    <polygon points="7.734999999999999,11.6025 7.734999999999999,12.7075 8.84,13.26 8.84,12.155" fill="#141900" opacity="0.5"></polygon>
    <polygon points="8.84,12.155 8.84,13.26 9.945,12.7075 9.945,11.6025" fill="#1e2600" opacity="0.5"></polygon>

    <polygon points="9.945,11.6025 11.05,11.049999999999999 12.155000000000001,11.6025 11.05,12.155" fill="#273300" opacity="0.5"></polygon>
    <polygon points="9.945,11.6025 9.945,12.7075 11.05,13.26 11.05,12.155" fill="#141900" opacity="0.5"></polygon>
    <polygon points="11.05,12.155 11.05,13.26 12.155000000000001,12.7075 12.155000000000001,11.6025" fill="#1e2600" opacity="0.5"></polygon>

    <polygon points="12.155000000000001,11.6025 13.260000000000002,11.049999999999999 14.365000000000002,11.6025 13.260000000000002,12.155" fill="#273300" opacity="0.5"></polygon>
    <polygon points="12.155000000000001,11.6025 12.155000000000001,12.7075 13.260000000000002,13.26 13.260000000000002,12.155" fill="#141900" opacity="0.5"></polygon>
    <polygon points="13.260000000000002,12.155 13.260000000000002,13.26 14.365000000000002,12.7075 14.365000000000002,11.6025" fill="#1e2600" opacity="0.5"></polygon>

    <polygon points="14.365000000000002,11.6025 15.470000000000002,11.049999999999999 16.575000000000003,11.6025 15.470000000000002,12.155" fill="#273300" opacity="0.5"></polygon>
    <polygon points="14.365000000000002,11.6025 14.365000000000002,12.7075 15.470000000000002,13.26 15.470000000000002,12.155" fill="#141900" opacity="0.5"></polygon>
    <polygon points="15.470000000000002,12.155 15.470000000000002,13.26 16.575000000000003,12.7075 16.575000000000003,11.6025" fill="#1e2600" opacity="0.5"></polygon>

    <polygon points="16.575,11.6025 17.68,11.049999999999999 18.785,11.6025 17.68,12.155" fill="#273300" opacity="0.5"></polygon>
    <polygon points="16.575,11.6025 16.575,12.7075 17.68,13.26 17.68,12.155" fill="#141900" opacity="0.5"></polygon>
    <polygon points="17.68,12.155 17.68,13.26 18.785,12.7075 18.785,11.6025" fill="#1e2600" opacity="0.5"></polygon>

    <polygon points="18.785,11.6025 19.89,11.049999999999999 20.995,11.6025 19.89,12.155" fill="#273300" opacity="0.5"></polygon>
    <polygon points="18.785,11.6025 18.785,12.7075 19.89,13.26 19.89,12.155" fill="#141900" opacity="0.5"></polygon>
    <polygon points="19.89,12.155 19.89,13.26 20.995,12.7075 20.995,11.6025" fill="#1e2600" opacity="0.5"></polygon>

    <polygon points="20.995,11.6025 22.1,11.049999999999999 23.205000000000002,11.6025 22.1,12.155" fill="#273300" opacity="0.5"></polygon>
    <polygon points="20.995,11.6025 20.995,12.7075 22.1,13.26 22.1,12.155" fill="#141900" opacity="0.5"></polygon>
    <polygon points="22.1,12.155 22.1,13.26 23.205000000000002,12.7075 23.205000000000002,11.6025" fill="#1e2600" opacity="0.5"></polygon>

    <polygon points="4.440892098500626e-16,13.26 1.1050000000000004,12.7075 2.2100000000000004,13.26 1.1050000000000004,13.8125" fill="#273300" opacity="0.5"></polygon>
    <polygon points="4.440892098500626e-16,13.26 4.440892098500626e-16,14.365 1.1050000000000004,14.9175 1.1050000000000004,13.8125" fill="#141900" opacity="0.5"></polygon>
    <polygon points="1.1050000000000004,13.8125 1.1050000000000004,14.9175 2.2100000000000004,14.365 2.2100000000000004,13.26" fill="#1e2600" opacity="0.5"></polygon>

    <polygon points="2.2100000000000013,13.26 3.3150000000000013,12.7075 4.420000000000002,13.26 3.3150000000000013,13.8125" fill="#273300" opacity="0.5"></polygon>
    <polygon points="2.2100000000000013,13.26 2.2100000000000013,14.365 3.3150000000000013,14.9175 3.3150000000000013,13.8125" fill="#141900" opacity="0.5"></polygon>
    <polygon points="3.3150000000000013,13.8125 3.3150000000000013,14.9175 4.420000000000002,14.365 4.420000000000002,13.26" fill="#1e2600" opacity="0.5"></polygon>

    <polygon points="4.42,13.26 5.525,12.7075 6.630000000000001,13.26 5.525,13.8125" fill="#273300" opacity="0.5"></polygon>
    <polygon points="4.42,13.26 4.42,14.365 5.525,14.9175 5.525,13.8125" fill="#141900" opacity="0.5"></polygon>
    <polygon points="5.525,13.8125 5.525,14.9175 6.630000000000001,14.365 6.630000000000001,13.26" fill="#1e2600" opacity="0.5"></polygon>

    <polygon points="6.629999999999999,13.26 7.734999999999999,12.7075 8.84,13.26 7.734999999999999,13.8125" fill="#273300" opacity="0.5"></polygon>
    <polygon points="6.629999999999999,13.26 6.629999999999999,14.365 7.734999999999999,14.9175 7.734999999999999,13.8125" fill="#141900" opacity="0.5"></polygon>
    <polygon points="7.734999999999999,13.8125 7.734999999999999,14.9175 8.84,14.365 8.84,13.26" fill="#1e2600" opacity="0.5"></polygon>

    <polygon points="8.84,13.26 9.945,12.7075 11.05,13.26 9.945,13.8125" fill="#273300" opacity="0.5"></polygon>
    <polygon points="8.84,13.26 8.84,14.365 9.945,14.9175 9.945,13.8125" fill="#141900" opacity="0.5"></polygon>
    <polygon points="9.945,13.8125 9.945,14.9175 11.05,14.365 11.05,13.26" fill="#1e2600" opacity="0.5"></polygon>

    <polygon points="11.05,13.26 12.155000000000001,12.7075 13.260000000000002,13.26 12.155000000000001,13.8125" fill="#273300" opacity="0.5"></polygon>
    <polygon points="11.05,13.26 11.05,14.365 12.155000000000001,14.9175 12.155000000000001,13.8125" fill="#141900" opacity="0.5"></polygon>
    <polygon points="12.155000000000001,13.8125 12.155000000000001,14.9175 13.260000000000002,14.365 13.260000000000002,13.26" fill="#1e2600" opacity="0.5"></polygon>

    <polygon points="13.260000000000002,13.26 14.365000000000002,12.7075 15.470000000000002,13.26 14.365000000000002,13.8125" fill="#273300" opacity="0.5"></polygon>
    <polygon points="13.260000000000002,13.26 13.260000000000002,14.365 14.365000000000002,14.9175 14.365000000000002,13.8125" fill="#141900" opacity="0.5"></polygon>
    <polygon points="14.365000000000002,13.8125 14.365000000000002,14.9175 15.470000000000002,14.365 15.470000000000002,13.26" fill="#1e2600" opacity="0.5"></polygon>

    <polygon points="15.469999999999999,13.26 16.575,12.7075 17.68,13.26 16.575,13.8125" fill="#273300" opacity="0.5"></polygon>
    <polygon points="15.469999999999999,13.26 15.469999999999999,14.365 16.575,14.9175 16.575,13.8125" fill="#141900" opacity="0.5"></polygon>
    <polygon points="16.575,13.8125 16.575,14.9175 17.68,14.365 17.68,13.26" fill="#1e2600" opacity="0.5"></polygon>

    <polygon points="17.68,13.26 18.785,12.7075 19.89,13.26 18.785,13.8125" fill="#273300" opacity="0.5"></polygon>
    <polygon points="17.68,13.26 17.68,14.365 18.785,14.9175 18.785,13.8125" fill="#141900" opacity="0.5"></polygon>
    <polygon points="18.785,13.8125 18.785,14.9175 19.89,14.365 19.89,13.26" fill="#1e2600" opacity="0.5"></polygon>

    <polygon points="19.89,13.26 20.995,12.7075 22.1,13.26 20.995,13.8125" fill="#273300" opacity="0.5"></polygon>
    <polygon points="19.89,13.26 19.89,14.365 20.995,14.9175 20.995,13.8125" fill="#141900" opacity="0.5"></polygon>
    <polygon points="20.995,13.8125 20.995,14.9175 22.1,14.365 22.1,13.26" fill="#1e2600" opacity="0.5"></polygon>

    <polygon points="-1.105,14.9175 0,14.365 1.105,14.9175 0,15.47" fill="#273300" opacity="0.5"></polygon>
    <polygon points="-1.105,14.9175 -1.105,16.0225 0,16.575 0,15.47" fill="#141900" opacity="0.5"></polygon>
    <polygon points="0,15.47 0,16.575 1.105,16.0225 1.105,14.9175" fill="#1e2600" opacity="0.5"></polygon>

    <polygon points="1.1050000000000009,14.9175 2.210000000000001,14.365 3.315000000000001,14.9175 2.210000000000001,15.47" fill="#273300" opacity="0.5"></polygon>
    <polygon points="1.1050000000000009,14.9175 1.1050000000000009,16.0225 2.210000000000001,16.575 2.210000000000001,15.47" fill="#141900" opacity="0.5"></polygon>
    <polygon points="2.210000000000001,15.47 2.210000000000001,16.575 3.315000000000001,16.0225 3.315000000000001,14.9175" fill="#1e2600" opacity="0.5"></polygon>

    <polygon points="3.315,14.9175 4.42,14.365 5.525,14.9175 4.42,15.47" fill="#273300" opacity="0.5"></polygon>
    <polygon points="3.315,14.9175 3.315,16.0225 4.42,16.575 4.42,15.47" fill="#141900" opacity="0.5"></polygon>
    <polygon points="4.42,15.47 4.42,16.575 5.525,16.0225 5.525,14.9175" fill="#1e2600" opacity="0.5"></polygon>

    <polygon points="5.524999999999999,14.9175 6.629999999999999,14.365 7.734999999999999,14.9175 6.629999999999999,15.47" fill="#273300" opacity="0.5"></polygon>
    <polygon points="5.524999999999999,14.9175 5.524999999999999,16.0225 6.629999999999999,16.575 6.629999999999999,15.47" fill="#141900" opacity="0.5"></polygon>
    <polygon points="6.629999999999999,15.47 6.629999999999999,16.575 7.734999999999999,16.0225 7.734999999999999,14.9175" fill="#1e2600" opacity="0.5"></polygon>

    <polygon points="7.734999999999999,14.9175 8.84,14.365 9.945,14.9175 8.84,15.47" fill="#273300" opacity="0.5"></polygon>
    <polygon points="7.734999999999999,14.9175 7.734999999999999,16.0225 8.84,16.575 8.84,15.47" fill="#141900" opacity="0.5"></polygon>
    <polygon points="8.84,15.47 8.84,16.575 9.945,16.0225 9.945,14.9175" fill="#1e2600" opacity="0.5"></polygon>

    <polygon points="9.945,14.9175 11.05,14.365 12.155000000000001,14.9175 11.05,15.47" fill="#273300" opacity="0.5"></polygon>
    <polygon points="9.945,14.9175 9.945,16.0225 11.05,16.575 11.05,15.47" fill="#141900" opacity="0.5"></polygon>
    <polygon points="11.05,15.47 11.05,16.575 12.155000000000001,16.0225 12.155000000000001,14.9175" fill="#1e2600" opacity="0.5"></polygon>

    <polygon points="12.155000000000001,14.9175 13.260000000000002,14.365 14.365000000000002,14.9175 13.260000000000002,15.47" fill="#273300" opacity="0.5"></polygon>
    <polygon points="12.155000000000001,14.9175 12.155000000000001,16.0225 13.260000000000002,16.575 13.260000000000002,15.47" fill="#141900" opacity="0.5"></polygon>
    <polygon points="13.260000000000002,15.47 13.260000000000002,16.575 14.365000000000002,16.0225 14.365000000000002,14.9175" fill="#1e2600" opacity="0.5"></polygon>

    <polygon points="14.364999999999998,14.9175 15.469999999999999,14.365 16.575,14.9175 15.469999999999999,15.47" fill="#273300" opacity="0.5"></polygon>
    <polygon points="14.364999999999998,14.9175 14.364999999999998,16.0225 15.469999999999999,16.575 15.469999999999999,15.47" fill="#141900" opacity="0.5"></polygon>
    <polygon points="15.469999999999999,15.47 15.469999999999999,16.575 16.575,16.0225 16.575,14.9175" fill="#1e2600" opacity="0.5"></polygon>

    <polygon points="16.575,14.9175 17.68,14.365 18.785,14.9175 17.68,15.47" fill="#273300" opacity="0.5"></polygon>
    <polygon points="16.575,14.9175 16.575,16.0225 17.68,16.575 17.68,15.47" fill="#141900" opacity="0.5"></polygon>
    <polygon points="17.68,15.47 17.68,16.575 18.785,16.0225 18.785,14.9175" fill="#1e2600" opacity="0.5"></polygon>

    <polygon points="18.785,14.9175 19.89,14.365 20.995,14.9175 19.89,15.47" fill="#273300" opacity="0.5"></polygon>
    <polygon points="18.785,14.9175 18.785,16.0225 19.89,16.575 19.89,15.47" fill="#141900" opacity="0.5"></polygon>
    <polygon points="19.89,15.47 19.89,16.575 20.995,16.0225 20.995,14.9175" fill="#1e2600" opacity="0.5"></polygon>

    <polygon points="20.994999999999994,14.9175 22.099999999999994,14.365 23.204999999999995,14.9175 22.099999999999994,15.47" fill="#273300" opacity="0.5"></polygon>
    <polygon points="20.994999999999994,14.9175 20.994999999999994,16.0225 22.099999999999994,16.575 22.099999999999994,15.47" fill="#141900" opacity="0.5"></polygon>
    <polygon points="22.099999999999994,15.47 22.099999999999994,16.575 23.204999999999995,16.0225 23.204999999999995,14.9175" fill="#1e2600" opacity="0.5"></polygon>

    <polygon points="4.440892098500626e-16,16.575000000000003 1.1050000000000004,16.0225 2.2100000000000004,16.575000000000003 1.1050000000000004,17.1275" fill="#273300" opacity="0.5"></polygon>
    <polygon points="4.440892098500626e-16,16.575000000000003 4.440892098500626e-16,17.68 1.1050000000000004,18.2325 1.1050000000000004,17.1275" fill="#141900" opacity="0.5"></polygon>
    <polygon points="1.1050000000000004,17.1275 1.1050000000000004,18.2325 2.2100000000000004,17.68 2.2100000000000004,16.575000000000003" fill="#1e2600" opacity="0.5"></polygon>

    <polygon points="2.2099999999999995,16.575000000000003 3.3149999999999995,16.0225 4.42,16.575000000000003 3.3149999999999995,17.1275" fill="#273300" opacity="0.5"></polygon>
    <polygon points="2.2099999999999995,16.575000000000003 2.2099999999999995,17.68 3.3149999999999995,18.2325 3.3149999999999995,17.1275" fill="#141900" opacity="0.5"></polygon>
    <polygon points="3.3149999999999995,17.1275 3.3149999999999995,18.2325 4.42,17.68 4.42,16.575000000000003" fill="#1e2600" opacity="0.5"></polygon>

    <polygon points="4.419999999999998,16.575000000000003 5.524999999999999,16.0225 6.629999999999999,16.575000000000003 5.524999999999999,17.1275" fill="#273300" opacity="0.5"></polygon>
    <polygon points="4.419999999999998,16.575000000000003 4.419999999999998,17.68 5.524999999999999,18.2325 5.524999999999999,17.1275" fill="#141900" opacity="0.5"></polygon>
    <polygon points="5.524999999999999,17.1275 5.524999999999999,18.2325 6.629999999999999,17.68 6.629999999999999,16.575000000000003" fill="#1e2600" opacity="0.5"></polygon>

    <polygon points="6.629999999999999,16.575000000000003 7.734999999999999,16.0225 8.84,16.575000000000003 7.734999999999999,17.1275" fill="#273300" opacity="0.5"></polygon>
    <polygon points="6.629999999999999,16.575000000000003 6.629999999999999,17.68 7.734999999999999,18.2325 7.734999999999999,17.1275" fill="#141900" opacity="0.5"></polygon>
    <polygon points="7.734999999999999,17.1275 7.734999999999999,18.2325 8.84,17.68 8.84,16.575000000000003" fill="#1e2600" opacity="0.5"></polygon>

    <polygon points="8.84,16.575000000000003 9.945,16.0225 11.05,16.575000000000003 9.945,17.1275" fill="#273300" opacity="0.5"></polygon>
    <polygon points="8.84,16.575000000000003 8.84,17.68 9.945,18.2325 9.945,17.1275" fill="#141900" opacity="0.5"></polygon>
    <polygon points="9.945,17.1275 9.945,18.2325 11.05,17.68 11.05,16.575000000000003" fill="#1e2600" opacity="0.5"></polygon>

    <polygon points="11.05,16.575000000000003 12.155000000000001,16.0225 13.260000000000002,16.575000000000003 12.155000000000001,17.1275" fill="#273300" opacity="0.5"></polygon>
    <polygon points="11.05,16.575000000000003 11.05,17.68 12.155000000000001,18.2325 12.155000000000001,17.1275" fill="#141900" opacity="0.5"></polygon>
    <polygon points="12.155000000000001,17.1275 12.155000000000001,18.2325 13.260000000000002,17.68 13.260000000000002,16.575000000000003" fill="#1e2600" opacity="0.5"></polygon>

    <polygon points="13.259999999999998,16.575000000000003 14.364999999999998,16.0225 15.469999999999999,16.575000000000003 14.364999999999998,17.1275" fill="#273300" opacity="0.5"></polygon>
    <polygon points="13.259999999999998,16.575000000000003 13.259999999999998,17.68 14.364999999999998,18.2325 14.364999999999998,17.1275" fill="#141900" opacity="0.5"></polygon>
    <polygon points="14.364999999999998,17.1275 14.364999999999998,18.2325 15.469999999999999,17.68 15.469999999999999,16.575000000000003" fill="#1e2600" opacity="0.5"></polygon>

    <polygon points="15.469999999999999,16.575000000000003 16.575,16.0225 17.68,16.575000000000003 16.575,17.1275" fill="#273300" opacity="0.5"></polygon>
    <polygon points="15.469999999999999,16.575000000000003 15.469999999999999,17.68 16.575,18.2325 16.575,17.1275" fill="#141900" opacity="0.5"></polygon>
    <polygon points="16.575,17.1275 16.575,18.2325 17.68,17.68 17.68,16.575000000000003" fill="#1e2600" opacity="0.5"></polygon>

    <polygon points="17.68,16.575000000000003 18.785,16.0225 19.89,16.575000000000003 18.785,17.1275" fill="#273300" opacity="0.5"></polygon>
    <polygon points="17.68,16.575000000000003 17.68,17.68 18.785,18.2325 18.785,17.1275" fill="#141900" opacity="0.5"></polygon>
    <polygon points="18.785,17.1275 18.785,18.2325 19.89,17.68 19.89,16.575000000000003" fill="#1e2600" opacity="0.5"></polygon>

    <polygon points="19.889999999999993,16.575000000000003 20.994999999999994,16.0225 22.099999999999994,16.575000000000003 20.994999999999994,17.1275" fill="#273300" opacity="0.5"></polygon>
    <polygon points="19.889999999999993,16.575000000000003 19.889999999999993,17.68 20.994999999999994,18.2325 20.994999999999994,17.1275" fill="#141900" opacity="0.5"></polygon>
    <polygon points="20.994999999999994,17.1275 20.994999999999994,18.2325 22.099999999999994,17.68 22.099999999999994,16.575000000000003" fill="#1e2600" opacity="0.5"></polygon>

    <polygon points="-1.1049999999999982,18.232499999999998 1.7763568394002505e-15,17.679999999999996 1.1050000000000018,18.232499999999998 1.7763568394002505e-15,18.784999999999997" fill="#273300" opacity="0.5"></polygon>
    <polygon points="-1.1049999999999982,18.232499999999998 -1.1049999999999982,19.337499999999995 1.7763568394002505e-15,19.889999999999997 1.7763568394002505e-15,18.784999999999997" fill="#141900" opacity="0.5"></polygon>
    <polygon points="1.7763568394002505e-15,18.784999999999997 1.7763568394002505e-15,19.889999999999997 1.1050000000000018,19.337499999999995 1.1050000000000018,18.232499999999998" fill="#1e2600" opacity="0.5"></polygon>

    <polygon points="1.1050000000000009,18.232499999999998 2.210000000000001,17.679999999999996 3.315000000000001,18.232499999999998 2.210000000000001,18.784999999999997" fill="#273300" opacity="0.5"></polygon>
    <polygon points="1.1050000000000009,18.232499999999998 1.1050000000000009,19.337499999999995 2.210000000000001,19.889999999999997 2.210000000000001,18.784999999999997" fill="#141900" opacity="0.5"></polygon>
    <polygon points="2.210000000000001,18.784999999999997 2.210000000000001,19.889999999999997 3.315000000000001,19.337499999999995 3.315000000000001,18.232499999999998" fill="#1e2600" opacity="0.5"></polygon>

    <polygon points="3.315,18.232499999999998 4.42,17.679999999999996 5.525,18.232499999999998 4.42,18.784999999999997" fill="#273300" opacity="0.5"></polygon>
    <polygon points="3.315,18.232499999999998 3.315,19.337499999999995 4.42,19.889999999999997 4.42,18.784999999999997" fill="#141900" opacity="0.5"></polygon>
    <polygon points="4.42,18.784999999999997 4.42,19.889999999999997 5.525,19.337499999999995 5.525,18.232499999999998" fill="#1e2600" opacity="0.5"></polygon>

    <polygon points="5.525,18.232499999999998 6.630000000000001,17.679999999999996 7.735000000000001,18.232499999999998 6.630000000000001,18.784999999999997" fill="#273300" opacity="0.5"></polygon>
    <polygon points="5.525,18.232499999999998 5.525,19.337499999999995 6.630000000000001,19.889999999999997 6.630000000000001,18.784999999999997" fill="#141900" opacity="0.5"></polygon>
    <polygon points="6.630000000000001,18.784999999999997 6.630000000000001,19.889999999999997 7.735000000000001,19.337499999999995 7.735000000000001,18.232499999999998" fill="#1e2600" opacity="0.5"></polygon>

    <polygon points="7.735000000000001,18.232499999999998 8.840000000000002,17.679999999999996 9.945000000000002,18.232499999999998 8.840000000000002,18.784999999999997" fill="#273300" opacity="0.5"></polygon>
    <polygon points="7.735000000000001,18.232499999999998 7.735000000000001,19.337499999999995 8.840000000000002,19.889999999999997 8.840000000000002,18.784999999999997" fill="#141900" opacity="0.5"></polygon>
    <polygon points="8.840000000000002,18.784999999999997 8.840000000000002,19.889999999999997 9.945000000000002,19.337499999999995 9.945000000000002,18.232499999999998" fill="#1e2600" opacity="0.5"></polygon>

    <polygon points="9.945000000000002,18.232499999999998 11.050000000000002,17.679999999999996 12.155000000000003,18.232499999999998 11.050000000000002,18.784999999999997" fill="#273300" opacity="0.5"></polygon>
    <polygon points="9.945000000000002,18.232499999999998 9.945000000000002,19.337499999999995 11.050000000000002,19.889999999999997 11.050000000000002,18.784999999999997" fill="#141900" opacity="0.5"></polygon>
    <polygon points="11.050000000000002,18.784999999999997 11.050000000000002,19.889999999999997 12.155000000000003,19.337499999999995 12.155000000000003,18.232499999999998" fill="#1e2600" opacity="0.5"></polygon>

    <polygon points="12.155,18.232499999999998 13.26,17.679999999999996 14.365,18.232499999999998 13.26,18.784999999999997" fill="#273300" opacity="0.5"></polygon>
    <polygon points="12.155,18.232499999999998 12.155,19.337499999999995 13.26,19.889999999999997 13.26,18.784999999999997" fill="#141900" opacity="0.5"></polygon>
    <polygon points="13.26,18.784999999999997 13.26,19.889999999999997 14.365,19.337499999999995 14.365,18.232499999999998" fill="#1e2600" opacity="0.5"></polygon>

    <polygon points="14.365,18.232499999999998 15.47,17.679999999999996 16.575,18.232499999999998 15.47,18.784999999999997" fill="#273300" opacity="0.5"></polygon>
    <polygon points="14.365,18.232499999999998 14.365,19.337499999999995 15.47,19.889999999999997 15.47,18.784999999999997" fill="#141900" opacity="0.5"></polygon>
    <polygon points="15.47,18.784999999999997 15.47,19.889999999999997 16.575,19.337499999999995 16.575,18.232499999999998" fill="#1e2600" opacity="0.5"></polygon>

    <polygon points="16.575,18.232499999999998 17.68,17.679999999999996 18.785,18.232499999999998 17.68,18.784999999999997" fill="#273300" opacity="0.5"></polygon>
    <polygon points="16.575,18.232499999999998 16.575,19.337499999999995 17.68,19.889999999999997 17.68,18.784999999999997" fill="#141900" opacity="0.5"></polygon>
    <polygon points="17.68,18.784999999999997 17.68,19.889999999999997 18.785,19.337499999999995 18.785,18.232499999999998" fill="#1e2600" opacity="0.5"></polygon>

    <polygon points="18.784999999999993,18.232499999999998 19.889999999999993,17.679999999999996 20.994999999999994,18.232499999999998 19.889999999999993,18.784999999999997" fill="#273300" opacity="0.5"></polygon>
    <polygon points="18.784999999999993,18.232499999999998 18.784999999999993,19.337499999999995 19.889999999999993,19.889999999999997 19.889999999999993,18.784999999999997" fill="#141900" opacity="0.5"></polygon>
    <polygon points="19.889999999999993,18.784999999999997 19.889999999999993,19.889999999999997 20.994999999999994,19.337499999999995 20.994999999999994,18.232499999999998" fill="#1e2600" opacity="0.5"></polygon>

    <polygon points="20.994999999999994,18.232499999999998 22.099999999999994,17.679999999999996 23.204999999999995,18.232499999999998 22.099999999999994,18.784999999999997" fill="#273300" opacity="0.5"></polygon>
    <polygon points="20.994999999999994,18.232499999999998 20.994999999999994,19.337499999999995 22.099999999999994,19.889999999999997 22.099999999999994,18.784999999999997" fill="#141900" opacity="0.5"></polygon>
    <polygon points="22.099999999999994,18.784999999999997 22.099999999999994,19.889999999999997 23.204999999999995,19.337499999999995 23.204999999999995,18.232499999999998" fill="#1e2600" opacity="0.5"></polygon>

    <polygon points="4.440892098500626e-16,19.89 1.1050000000000004,19.3375 2.2100000000000004,19.89 1.1050000000000004,20.4425" fill="#273300" opacity="0.5"></polygon>
    <polygon points="4.440892098500626e-16,19.89 4.440892098500626e-16,20.994999999999997 1.1050000000000004,21.5475 1.1050000000000004,20.4425" fill="#141900" opacity="0.5"></polygon>
    <polygon points="1.1050000000000004,20.4425 1.1050000000000004,21.5475 2.2100000000000004,20.994999999999997 2.2100000000000004,19.89" fill="#1e2600" opacity="0.5"></polygon>

    <polygon points="2.2099999999999995,19.89 3.3149999999999995,19.3375 4.42,19.89 3.3149999999999995,20.4425" fill="#273300" opacity="0.5"></polygon>
    <polygon points="2.2099999999999995,19.89 2.2099999999999995,20.994999999999997 3.3149999999999995,21.5475 3.3149999999999995,20.4425" fill="#141900" opacity="0.5"></polygon>
    <polygon points="3.3149999999999995,20.4425 3.3149999999999995,21.5475 4.42,20.994999999999997 4.42,19.89" fill="#1e2600" opacity="0.5"></polygon>

    <polygon points="4.42,19.89 5.525,19.3375 6.630000000000001,19.89 5.525,20.4425" fill="#273300" opacity="0.5"></polygon>
    <polygon points="4.42,19.89 4.42,20.994999999999997 5.525,21.5475 5.525,20.4425" fill="#141900" opacity="0.5"></polygon>
    <polygon points="5.525,20.4425 5.525,21.5475 6.630000000000001,20.994999999999997 6.630000000000001,19.89" fill="#1e2600" opacity="0.5"></polygon>

    <polygon points="6.630000000000001,19.89 7.735000000000001,19.3375 8.840000000000002,19.89 7.735000000000001,20.4425" fill="#273300" opacity="0.5"></polygon>
    <polygon points="6.630000000000001,19.89 6.630000000000001,20.994999999999997 7.735000000000001,21.5475 7.735000000000001,20.4425" fill="#141900" opacity="0.5"></polygon>
    <polygon points="7.735000000000001,20.4425 7.735000000000001,21.5475 8.840000000000002,20.994999999999997 8.840000000000002,19.89" fill="#1e2600" opacity="0.5"></polygon>

    <polygon points="8.840000000000002,19.89 9.945000000000002,19.3375 11.050000000000002,19.89 9.945000000000002,20.4425" fill="#273300" opacity="0.5"></polygon>
    <polygon points="8.840000000000002,19.89 8.840000000000002,20.994999999999997 9.945000000000002,21.5475 9.945000000000002,20.4425" fill="#141900" opacity="0.5"></polygon>
    <polygon points="9.945000000000002,20.4425 9.945000000000002,21.5475 11.050000000000002,20.994999999999997 11.050000000000002,19.89" fill="#1e2600" opacity="0.5"></polygon>

    <polygon points="11.049999999999999,19.89 12.155,19.3375 13.26,19.89 12.155,20.4425" fill="#273300" opacity="0.5"></polygon>
    <polygon points="11.049999999999999,19.89 11.049999999999999,20.994999999999997 12.155,21.5475 12.155,20.4425" fill="#141900" opacity="0.5"></polygon>
    <polygon points="12.155,20.4425 12.155,21.5475 13.26,20.994999999999997 13.26,19.89" fill="#1e2600" opacity="0.5"></polygon>

    <polygon points="13.26,19.89 14.365,19.3375 15.47,19.89 14.365,20.4425" fill="#273300" opacity="0.5"></polygon>
    <polygon points="13.26,19.89 13.26,20.994999999999997 14.365,21.5475 14.365,20.4425" fill="#141900" opacity="0.5"></polygon>
    <polygon points="14.365,20.4425 14.365,21.5475 15.47,20.994999999999997 15.47,19.89" fill="#1e2600" opacity="0.5"></polygon>

    <polygon points="15.470000000000002,19.89 16.575000000000003,19.3375 17.680000000000003,19.89 16.575000000000003,20.4425" fill="#273300" opacity="0.5"></polygon>
    <polygon points="15.470000000000002,19.89 15.470000000000002,20.994999999999997 16.575000000000003,21.5475 16.575000000000003,20.4425" fill="#141900" opacity="0.5"></polygon>
    <polygon points="16.575000000000003,20.4425 16.575000000000003,21.5475 17.680000000000003,20.994999999999997 17.680000000000003,19.89" fill="#1e2600" opacity="0.5"></polygon>

    <polygon points="17.679999999999996,19.89 18.784999999999997,19.3375 19.889999999999997,19.89 18.784999999999997,20.4425" fill="#273300" opacity="0.5"></polygon>
    <polygon points="17.679999999999996,19.89 17.679999999999996,20.994999999999997 18.784999999999997,21.5475 18.784999999999997,20.4425" fill="#141900" opacity="0.5"></polygon>
    <polygon points="18.784999999999997,20.4425 18.784999999999997,21.5475 19.889999999999997,20.994999999999997 19.889999999999997,19.89" fill="#1e2600" opacity="0.5"></polygon>

    <polygon points="19.889999999999997,19.89 20.994999999999997,19.3375 22.099999999999998,19.89 20.994999999999997,20.4425" fill="#273300" opacity="0.5"></polygon>
    <polygon points="19.889999999999997,19.89 19.889999999999997,20.994999999999997 20.994999999999997,21.5475 20.994999999999997,20.4425" fill="#141900" opacity="0.5"></polygon>
    <polygon points="20.994999999999997,20.4425 20.994999999999997,21.5475 22.099999999999998,20.994999999999997 22.099999999999998,19.89" fill="#1e2600" opacity="0.5"></polygon>

    <polygon points="-1.105,21.5475 0,20.994999999999997 1.105,21.5475 0,22.099999999999998" fill="#273300" opacity="0.5"></polygon>
    <polygon points="-1.105,21.5475 -1.105,22.652499999999996 0,23.205 0,22.099999999999998" fill="#141900" opacity="0.5"></polygon>
    <polygon points="0,22.099999999999998 0,23.205 1.105,22.652499999999996 1.105,21.5475" fill="#1e2600" opacity="0.5"></polygon>

    <polygon points="1.104999999999999,21.5475 2.209999999999999,20.994999999999997 3.314999999999999,21.5475 2.209999999999999,22.099999999999998" fill="#273300" opacity="0.5"></polygon>
    <polygon points="1.104999999999999,21.5475 1.104999999999999,22.652499999999996 2.209999999999999,23.205 2.209999999999999,22.099999999999998" fill="#141900" opacity="0.5"></polygon>
    <polygon points="2.209999999999999,22.099999999999998 2.209999999999999,23.205 3.314999999999999,22.652499999999996 3.314999999999999,21.5475" fill="#1e2600" opacity="0.5"></polygon>

    <polygon points="3.315,21.5475 4.42,20.994999999999997 5.525,21.5475 4.42,22.099999999999998" fill="#273300" opacity="0.5"></polygon>
    <polygon points="3.315,21.5475 3.315,22.652499999999996 4.42,23.205 4.42,22.099999999999998" fill="#141900" opacity="0.5"></polygon>
    <polygon points="4.42,22.099999999999998 4.42,23.205 5.525,22.652499999999996 5.525,21.5475" fill="#1e2600" opacity="0.5"></polygon>

    <polygon points="5.525,21.5475 6.630000000000001,20.994999999999997 7.735000000000001,21.5475 6.630000000000001,22.099999999999998" fill="#273300" opacity="0.5"></polygon>
    <polygon points="5.525,21.5475 5.525,22.652499999999996 6.630000000000001,23.205 6.630000000000001,22.099999999999998" fill="#141900" opacity="0.5"></polygon>
    <polygon points="6.630000000000001,22.099999999999998 6.630000000000001,23.205 7.735000000000001,22.652499999999996 7.735000000000001,21.5475" fill="#1e2600" opacity="0.5"></polygon>

    <polygon points="7.735000000000001,21.5475 8.840000000000002,20.994999999999997 9.945000000000002,21.5475 8.840000000000002,22.099999999999998" fill="#273300" opacity="0.5"></polygon>
    <polygon points="7.735000000000001,21.5475 7.735000000000001,22.652499999999996 8.840000000000002,23.205 8.840000000000002,22.099999999999998" fill="#141900" opacity="0.5"></polygon>
    <polygon points="8.840000000000002,22.099999999999998 8.840000000000002,23.205 9.945000000000002,22.652499999999996 9.945000000000002,21.5475" fill="#1e2600" opacity="0.5"></polygon>

    <polygon points="9.944999999999999,21.5475 11.049999999999999,20.994999999999997 12.155,21.5475 11.049999999999999,22.099999999999998" fill="#273300" opacity="0.5"></polygon>
    <polygon points="9.944999999999999,21.5475 9.944999999999999,22.652499999999996 11.049999999999999,23.205 11.049999999999999,22.099999999999998" fill="#141900" opacity="0.5"></polygon>
    <polygon points="11.049999999999999,22.099999999999998 11.049999999999999,23.205 12.155,22.652499999999996 12.155,21.5475" fill="#1e2600" opacity="0.5"></polygon>

    <polygon points="12.155,21.5475 13.26,20.994999999999997 14.365,21.5475 13.26,22.099999999999998" fill="#273300" opacity="0.5"></polygon>
    <polygon points="12.155,21.5475 12.155,22.652499999999996 13.26,23.205 13.26,22.099999999999998" fill="#141900" opacity="0.5"></polygon>
    <polygon points="13.26,22.099999999999998 13.26,23.205 14.365,22.652499999999996 14.365,21.5475" fill="#1e2600" opacity="0.5"></polygon>

    <polygon points="14.365,21.5475 15.47,20.994999999999997 16.575,21.5475 15.47,22.099999999999998" fill="#273300" opacity="0.5"></polygon>
    <polygon points="14.365,21.5475 14.365,22.652499999999996 15.47,23.205 15.47,22.099999999999998" fill="#141900" opacity="0.5"></polygon>
    <polygon points="15.47,22.099999999999998 15.47,23.205 16.575,22.652499999999996 16.575,21.5475" fill="#1e2600" opacity="0.5"></polygon>

    <polygon points="16.574999999999992,21.5475 17.679999999999993,20.994999999999997 18.784999999999993,21.5475 17.679999999999993,22.099999999999998" fill="#273300" opacity="0.5"></polygon>
    <polygon points="16.574999999999992,21.5475 16.574999999999992,22.652499999999996 17.679999999999993,23.205 17.679999999999993,22.099999999999998" fill="#141900" opacity="0.5"></polygon>
    <polygon points="17.679999999999993,22.099999999999998 17.679999999999993,23.205 18.784999999999993,22.652499999999996 18.784999999999993,21.5475" fill="#1e2600" opacity="0.5"></polygon>

    <polygon points="18.784999999999993,21.5475 19.889999999999993,20.994999999999997 20.994999999999994,21.5475 19.889999999999993,22.099999999999998" fill="#273300" opacity="0.5"></polygon>
    <polygon points="18.784999999999993,21.5475 18.784999999999993,22.652499999999996 19.889999999999993,23.205 19.889999999999993,22.099999999999998" fill="#141900" opacity="0.5"></polygon>
    <polygon points="19.889999999999993,22.099999999999998 19.889999999999993,23.205 20.994999999999994,22.652499999999996 20.994999999999994,21.5475" fill="#1e2600" opacity="0.5"></polygon>

    <polygon points="20.994999999999994,21.5475 22.099999999999994,20.994999999999997 23.204999999999995,21.5475 22.099999999999994,22.099999999999998" fill="#273300" opacity="0.5"></polygon>
    <polygon points="20.994999999999994,21.5475 20.994999999999994,22.652499999999996 22.099999999999994,23.205 22.099999999999994,22.099999999999998" fill="#141900" opacity="0.5"></polygon>
    <polygon points="22.099999999999994,22.099999999999998 22.099999999999994,23.205 23.204999999999995,22.652499999999996 23.204999999999995,21.5475" fill="#1e2600" opacity="0.5"></polygon>
  <rect x="8" y="0" width="1" height="1" fill="#262d06" stroke="#262d06" stroke-width="0.05"></rect>
<rect x="9" y="0" width="1" height="1" fill="#262d06" stroke="#262d06" stroke-width="0.05"></rect>
<rect x="15" y="0" width="1" height="1" fill="#262d06" stroke="#262d06" stroke-width="0.05"></rect>
<rect x="8" y="1" width="1" height="1" fill="#262d06" stroke="#262d06" stroke-width="0.05"></rect>
<rect x="9" y="1" width="1" height="1" fill="#acc91c" stroke="#acc91c" stroke-width="0.05"></rect>
<rect x="10" y="1" width="1" height="1" fill="#262d06" stroke="#262d06" stroke-width="0.05"></rect>
<rect x="14" y="1" width="1" height="1" fill="#262d06" stroke="#262d06" stroke-width="0.05"></rect>
<rect x="15" y="1" width="1" height="1" fill="#4c590d" stroke="#4c590d" stroke-width="0.05"></rect>
<rect x="16" y="1" width="1" height="1" fill="#262d06" stroke="#262d06" stroke-width="0.05"></rect>
<rect x="8" y="2" width="1" height="1" fill="#262d06" stroke="#262d06" stroke-width="0.05"></rect>
<rect x="9" y="2" width="1" height="1" fill="#f2cca6" stroke="#f2cca6" stroke-width="0.05"></rect>
<rect x="10" y="2" width="1" height="1" fill="#acc91c" stroke="#acc91c" stroke-width="0.05"></rect>
<rect x="11" y="2" width="1" height="1" fill="#262d06" stroke="#262d06" stroke-width="0.05"></rect>
<rect x="12" y="2" width="1" height="1" fill="#262d06" stroke="#262d06" stroke-width="0.05"></rect>
<rect x="13" y="2" width="1" height="1" fill="#262d06" stroke="#262d06" stroke-width="0.05"></rect>
<rect x="14" y="2" width="1" height="1" fill="#4c590d" stroke="#4c590d" stroke-width="0.05"></rect>
<rect x="15" y="2" width="1" height="1" fill="#f2cca6" stroke="#f2cca6" stroke-width="0.05"></rect>
<rect x="16" y="2" width="1" height="1" fill="#262d06" stroke="#262d06" stroke-width="0.05"></rect>
<rect x="7" y="3" width="1" height="1" fill="#262d06" stroke="#262d06" stroke-width="0.05"></rect>
<rect x="8" y="3" width="1" height="1" fill="#262d06" stroke="#262d06" stroke-width="0.05"></rect>
<rect x="9" y="3" width="1" height="1" fill="#acc91c" stroke="#acc91c" stroke-width="0.05"></rect>
<rect x="10" y="3" width="1" height="1" fill="#acc91c" stroke="#acc91c" stroke-width="0.05"></rect>
<rect x="11" y="3" width="1" height="1" fill="#acc91c" stroke="#acc91c" stroke-width="0.05"></rect>
<rect x="12" y="3" width="1" height="1" fill="#acc91c" stroke="#acc91c" stroke-width="0.05"></rect>
<rect x="13" y="3" width="1" height="1" fill="#4c590d" stroke="#4c590d" stroke-width="0.05"></rect>
<rect x="14" y="3" width="1" height="1" fill="#4c590d" stroke="#4c590d" stroke-width="0.05"></rect>
<rect x="15" y="3" width="1" height="1" fill="#4c590d" stroke="#4c590d" stroke-width="0.05"></rect>
<rect x="16" y="3" width="1" height="1" fill="#262d06" stroke="#262d06" stroke-width="0.05"></rect>
<rect x="17" y="3" width="1" height="1" fill="#262d06" stroke="#262d06" stroke-width="0.05"></rect>
<rect x="7" y="4" width="1" height="1" fill="#000000" stroke="#000000" stroke-width="0.05"></rect>
<rect x="8" y="4" width="1" height="1" fill="#000000" stroke="#000000" stroke-width="0.05"></rect>
<rect x="9" y="4" width="1" height="1" fill="#000000" stroke="#000000" stroke-width="0.05"></rect>
<rect x="10" y="4" width="1" height="1" fill="#000000" stroke="#000000" stroke-width="0.05"></rect>
<rect x="11" y="4" width="1" height="1" fill="#000000" stroke="#000000" stroke-width="0.05"></rect>
<rect x="12" y="4" width="1" height="1" fill="#4c590d" stroke="#4c590d" stroke-width="0.05"></rect>
<rect x="13" y="4" width="1" height="1" fill="#000000" stroke="#000000" stroke-width="0.05"></rect>
<rect x="14" y="4" width="1" height="1" fill="#000000" stroke="#000000" stroke-width="0.05"></rect>
<rect x="15" y="4" width="1" height="1" fill="#000000" stroke="#000000" stroke-width="0.05"></rect>
<rect x="16" y="4" width="1" height="1" fill="#000000" stroke="#000000" stroke-width="0.05"></rect>
<rect x="17" y="4" width="1" height="1" fill="#000000" stroke="#000000" stroke-width="0.05"></rect>
<rect x="7" y="5" width="1" height="1" fill="#000000" stroke="#000000" stroke-width="0.05"></rect>
<rect x="8" y="5" width="1" height="1" fill="#1e2600" stroke="#1e2600" stroke-width="0.05"></rect>
<rect x="9" y="5" width="1" height="1" fill="#1e2600" stroke="#1e2600" stroke-width="0.05"></rect>
<rect x="10" y="5" width="1" height="1" fill="#1e2600" stroke="#1e2600" stroke-width="0.05"></rect>
<rect x="11" y="5" width="1" height="1" fill="#000000" stroke="#000000" stroke-width="0.05"></rect>
<rect x="12" y="5" width="1" height="1" fill="#000000" stroke="#000000" stroke-width="0.05"></rect>
<rect x="13" y="5" width="1" height="1" fill="#000000" stroke="#000000" stroke-width="0.05"></rect>
<rect x="14" y="5" width="1" height="1" fill="#1e2600" stroke="#1e2600" stroke-width="0.05"></rect>
<rect x="15" y="5" width="1" height="1" fill="#1e2600" stroke="#1e2600" stroke-width="0.05"></rect>
<rect x="16" y="5" width="1" height="1" fill="#1e2600" stroke="#1e2600" stroke-width="0.05"></rect>
<rect x="17" y="5" width="1" height="1" fill="#000000" stroke="#000000" stroke-width="0.05"></rect>
<rect x="6" y="6" width="1" height="1" fill="#000000" stroke="#000000" stroke-width="0.05"></rect>
<rect x="7" y="6" width="1" height="1" fill="#000000" stroke="#000000" stroke-width="0.05"></rect>
<rect x="8" y="6" width="1" height="1" fill="#273300" stroke="#273300" stroke-width="0.05"></rect>
<rect x="9" y="6" width="1" height="1" fill="#273300" stroke="#273300" stroke-width="0.05"></rect>
<rect x="10" y="6" width="1" height="1" fill="#273300" stroke="#273300" stroke-width="0.05"></rect>
<rect x="11" y="6" width="1" height="1" fill="#000000" stroke="#000000" stroke-width="0.05"></rect>
<rect x="12" y="6" width="1" height="1" fill="#4c590d" stroke="#4c590d" stroke-width="0.05"></rect>
<rect x="13" y="6" width="1" height="1" fill="#000000" stroke="#000000" stroke-width="0.05"></rect>
<rect x="14" y="6" width="1" height="1" fill="#273300" stroke="#273300" stroke-width="0.05"></rect>
<rect x="15" y="6" width="1" height="1" fill="#273300" stroke="#273300" stroke-width="0.05"></rect>
<rect x="16" y="6" width="1" height="1" fill="#273300" stroke="#273300" stroke-width="0.05"></rect>
<rect x="17" y="6" width="1" height="1" fill="#000000" stroke="#000000" stroke-width="0.05"></rect>
<rect x="7" y="7" width="1" height="1" fill="#000000" stroke="#000000" stroke-width="0.05"></rect>
<rect x="8" y="7" width="1" height="1" fill="#3b4d00" stroke="#3b4d00" stroke-width="0.05"></rect>
<rect x="9" y="7" width="1" height="1" fill="#3b4d00" stroke="#3b4d00" stroke-width="0.05"></rect>
<rect x="10" y="7" width="1" height="1" fill="#3b4d00" stroke="#3b4d00" stroke-width="0.05"></rect>
<rect x="11" y="7" width="1" height="1" fill="#000000" stroke="#000000" stroke-width="0.05"></rect>
<rect x="12" y="7" width="1" height="1" fill="#f2cca6" stroke="#f2cca6" stroke-width="0.05"></rect>
<rect x="13" y="7" width="1" height="1" fill="#000000" stroke="#000000" stroke-width="0.05"></rect>
<rect x="14" y="7" width="1" height="1" fill="#3b4d00" stroke="#3b4d00" stroke-width="0.05"></rect>
<rect x="15" y="7" width="1" height="1" fill="#3b4d00" stroke="#3b4d00" stroke-width="0.05"></rect>
<rect x="16" y="7" width="1" height="1" fill="#3b4d00" stroke="#3b4d00" stroke-width="0.05"></rect>
<rect x="17" y="7" width="1" height="1" fill="#000000" stroke="#000000" stroke-width="0.05"></rect>
<rect x="7" y="8" width="1" height="1" fill="#262d06" stroke="#262d06" stroke-width="0.05"></rect>
<rect x="8" y="8" width="1" height="1" fill="#000000" stroke="#000000" stroke-width="0.05"></rect>
<rect x="9" y="8" width="1" height="1" fill="#000000" stroke="#000000" stroke-width="0.05"></rect>
<rect x="10" y="8" width="1" height="1" fill="#000000" stroke="#000000" stroke-width="0.05"></rect>
<rect x="11" y="8" width="1" height="1" fill="#d9ec79" stroke="#d9ec79" stroke-width="0.05"></rect>
<rect x="12" y="8" width="1" height="1" fill="#4c590d" stroke="#4c590d" stroke-width="0.05"></rect>
<rect x="13" y="8" width="1" height="1" fill="#d9ec79" stroke="#d9ec79" stroke-width="0.05"></rect>
<rect x="14" y="8" width="1" height="1" fill="#000000" stroke="#000000" stroke-width="0.05"></rect>
<rect x="15" y="8" width="1" height="1" fill="#000000" stroke="#000000" stroke-width="0.05"></rect>
<rect x="16" y="8" width="1" height="1" fill="#000000" stroke="#000000" stroke-width="0.05"></rect>
<rect x="17" y="8" width="1" height="1" fill="#262d06" stroke="#262d06" stroke-width="0.05"></rect>
<rect x="7" y="9" width="1" height="1" fill="#262d06" stroke="#262d06" stroke-width="0.05"></rect>
<rect x="8" y="9" width="1" height="1" fill="#262d06" stroke="#262d06" stroke-width="0.05"></rect>
<rect x="9" y="9" width="1" height="1" fill="#acc91c" stroke="#acc91c" stroke-width="0.05"></rect>
<rect x="10" y="9" width="1" height="1" fill="#acc91c" stroke="#acc91c" stroke-width="0.05"></rect>
<rect x="11" y="9" width="1" height="1" fill="#4c590d" stroke="#4c590d" stroke-width="0.05"></rect>
<rect x="12" y="9" width="1" height="1" fill="#4c590d" stroke="#4c590d" stroke-width="0.05"></rect>
<rect x="13" y="9" width="1" height="1" fill="#4c590d" stroke="#4c590d" stroke-width="0.05"></rect>
<rect x="14" y="9" width="1" height="1" fill="#4c590d" stroke="#4c590d" stroke-width="0.05"></rect>
<rect x="15" y="9" width="1" height="1" fill="#4c590d" stroke="#4c590d" stroke-width="0.05"></rect>
<rect x="16" y="9" width="1" height="1" fill="#262d06" stroke="#262d06" stroke-width="0.05"></rect>
<rect x="5" y="10" width="1" height="1" fill="#262d06" stroke="#262d06" stroke-width="0.05"></rect>
<rect x="6" y="10" width="1" height="1" fill="#262d06" stroke="#262d06" stroke-width="0.05"></rect>
<rect x="7" y="10" width="1" height="1" fill="#262d06" stroke="#262d06" stroke-width="0.05"></rect>
<rect x="8" y="10" width="1" height="1" fill="#acc91c" stroke="#acc91c" stroke-width="0.05"></rect>
<rect x="9" y="10" width="1" height="1" fill="#262d06" stroke="#262d06" stroke-width="0.05"></rect>
<rect x="10" y="10" width="1" height="1" fill="#262d06" stroke="#262d06" stroke-width="0.05"></rect>
<rect x="11" y="10" width="1" height="1" fill="#262d06" stroke="#262d06" stroke-width="0.05"></rect>
<rect x="12" y="10" width="1" height="1" fill="#262d06" stroke="#262d06" stroke-width="0.05"></rect>
<rect x="13" y="10" width="1" height="1" fill="#262d06" stroke="#262d06" stroke-width="0.05"></rect>
<rect x="14" y="10" width="1" height="1" fill="#262d06" stroke="#262d06" stroke-width="0.05"></rect>
<rect x="15" y="10" width="1" height="1" fill="#262d06" stroke="#262d06" stroke-width="0.05"></rect>
<rect x="16" y="10" width="1" height="1" fill="#acc91c" stroke="#acc91c" stroke-width="0.05"></rect>
<rect x="17" y="10" width="1" height="1" fill="#262d06" stroke="#262d06" stroke-width="0.05"></rect>
<rect x="18" y="10" width="1" height="1" fill="#262d06" stroke="#262d06" stroke-width="0.05"></rect>
<rect x="3" y="11" width="1" height="1" fill="#262d06" stroke="#262d06" stroke-width="0.05"></rect>
<rect x="4" y="11" width="1" height="1" fill="#262d06" stroke="#262d06" stroke-width="0.05"></rect>
<rect x="5" y="11" width="1" height="1" fill="#acc91c" stroke="#acc91c" stroke-width="0.05"></rect>
<rect x="6" y="11" width="1" height="1" fill="#262d06" stroke="#262d06" stroke-width="0.05"></rect>
<rect x="7" y="11" width="1" height="1" fill="#acc91c" stroke="#acc91c" stroke-width="0.05"></rect>
<rect x="8" y="11" width="1" height="1" fill="#acc91c" stroke="#acc91c" stroke-width="0.05"></rect>
<rect x="9" y="11" width="1" height="1" fill="#acc91c" stroke="#acc91c" stroke-width="0.05"></rect>
<rect x="10" y="11" width="1" height="1" fill="#acc91c" stroke="#acc91c" stroke-width="0.05"></rect>
<rect x="11" y="11" width="1" height="1" fill="#acc91c" stroke="#acc91c" stroke-width="0.05"></rect>
<rect x="12" y="11" width="1" height="1" fill="#acc91c" stroke="#acc91c" stroke-width="0.05"></rect>
<rect x="13" y="11" width="1" height="1" fill="#acc91c" stroke="#acc91c" stroke-width="0.05"></rect>
<rect x="14" y="11" width="1" height="1" fill="#acc91c" stroke="#acc91c" stroke-width="0.05"></rect>
<rect x="15" y="11" width="1" height="1" fill="#acc91c" stroke="#acc91c" stroke-width="0.05"></rect>
<rect x="16" y="11" width="1" height="1" fill="#acc91c" stroke="#acc91c" stroke-width="0.05"></rect>
<rect x="17" y="11" width="1" height="1" fill="#f2cca6" stroke="#f2cca6" stroke-width="0.05"></rect>
<rect x="18" y="11" width="1" height="1" fill="#262d06" stroke="#262d06" stroke-width="0.05"></rect>
<rect x="3" y="12" width="1" height="1" fill="#262d06" stroke="#262d06" stroke-width="0.05"></rect>
<rect x="4" y="12" width="1" height="1" fill="#acc91c" stroke="#acc91c" stroke-width="0.05"></rect>
<rect x="5" y="12" width="1" height="1" fill="#262d06" stroke="#262d06" stroke-width="0.05"></rect>
<rect x="6" y="12" width="1" height="1" fill="#262d06" stroke="#262d06" stroke-width="0.05"></rect>
<rect x="7" y="12" width="1" height="1" fill="#acc91c" stroke="#acc91c" stroke-width="0.05"></rect>
<rect x="8" y="12" width="1" height="1" fill="#acc91c" stroke="#acc91c" stroke-width="0.05"></rect>
<rect x="9" y="12" width="1" height="1" fill="#acc91c" stroke="#acc91c" stroke-width="0.05"></rect>
<rect x="10" y="12" width="1" height="1" fill="#4c590d" stroke="#4c590d" stroke-width="0.05"></rect>
<rect x="11" y="12" width="1" height="1" fill="#262d06" stroke="#262d06" stroke-width="0.05"></rect>
<rect x="12" y="12" width="1" height="1" fill="#262d06" stroke="#262d06" stroke-width="0.05"></rect>
<rect x="13" y="12" width="1" height="1" fill="#262d06" stroke="#262d06" stroke-width="0.05"></rect>
<rect x="14" y="12" width="1" height="1" fill="#acc91c" stroke="#acc91c" stroke-width="0.05"></rect>
<rect x="15" y="12" width="1" height="1" fill="#acc91c" stroke="#acc91c" stroke-width="0.05"></rect>
<rect x="16" y="12" width="1" height="1" fill="#262d06" stroke="#262d06" stroke-width="0.05"></rect>
<rect x="17" y="12" width="1" height="1" fill="#262d06" stroke="#262d06" stroke-width="0.05"></rect>
<rect x="18" y="12" width="1" height="1" fill="#262d06" stroke="#262d06" stroke-width="0.05"></rect>
<rect x="2" y="13" width="1" height="1" fill="#262d06" stroke="#262d06" stroke-width="0.05"></rect>
<rect x="3" y="13" width="1" height="1" fill="#262d06" stroke="#262d06" stroke-width="0.05"></rect>
<rect x="4" y="13" width="1" height="1" fill="#acc91c" stroke="#acc91c" stroke-width="0.05"></rect>
<rect x="5" y="13" width="1" height="1" fill="#262d06" stroke="#262d06" stroke-width="0.05"></rect>
<rect x="6" y="13" width="1" height="1" fill="#acc91c" stroke="#acc91c" stroke-width="0.05"></rect>
<rect x="7" y="13" width="1" height="1" fill="#acc91c" stroke="#acc91c" stroke-width="0.05"></rect>
<rect x="8" y="13" width="1" height="1" fill="#acc91c" stroke="#acc91c" stroke-width="0.05"></rect>
<rect x="9" y="13" width="1" height="1" fill="#4c590d" stroke="#4c590d" stroke-width="0.05"></rect>
<rect x="10" y="13" width="1" height="1" fill="#4c590d" stroke="#4c590d" stroke-width="0.05"></rect>
<rect x="11" y="13" width="1" height="1" fill="#4c590d" stroke="#4c590d" stroke-width="0.05"></rect>
<rect x="12" y="13" width="1" height="1" fill="#f2cca6" stroke="#f2cca6" stroke-width="0.05"></rect>
<rect x="13" y="13" width="1" height="1" fill="#262d06" stroke="#262d06" stroke-width="0.05"></rect>
<rect x="14" y="13" width="1" height="1" fill="#acc91c" stroke="#acc91c" stroke-width="0.05"></rect>
<rect x="15" y="13" width="1" height="1" fill="#262d06" stroke="#262d06" stroke-width="0.05"></rect>
<rect x="16" y="13" width="1" height="1" fill="#262d06" stroke="#262d06" stroke-width="0.05"></rect>
<rect x="2" y="14" width="1" height="1" fill="#262d06" stroke="#262d06" stroke-width="0.05"></rect>
<rect x="3" y="14" width="1" height="1" fill="#acc91c" stroke="#acc91c" stroke-width="0.05"></rect>
<rect x="4" y="14" width="1" height="1" fill="#262d06" stroke="#262d06" stroke-width="0.05"></rect>
<rect x="5" y="14" width="1" height="1" fill="#262d06" stroke="#262d06" stroke-width="0.05"></rect>
<rect x="6" y="14" width="1" height="1" fill="#acc91c" stroke="#acc91c" stroke-width="0.05"></rect>
<rect x="7" y="14" width="1" height="1" fill="#acc91c" stroke="#acc91c" stroke-width="0.05"></rect>
<rect x="8" y="14" width="1" height="1" fill="#acc91c" stroke="#acc91c" stroke-width="0.05"></rect>
<rect x="9" y="14" width="1" height="1" fill="#4c590d" stroke="#4c590d" stroke-width="0.05"></rect>
<rect x="10" y="14" width="1" height="1" fill="#4c590d" stroke="#4c590d" stroke-width="0.05"></rect>
<rect x="11" y="14" width="1" height="1" fill="#262d06" stroke="#262d06" stroke-width="0.05"></rect>
<rect x="12" y="14" width="1" height="1" fill="#262d06" stroke="#262d06" stroke-width="0.05"></rect>
<rect x="13" y="14" width="1" height="1" fill="#acc91c" stroke="#acc91c" stroke-width="0.05"></rect>
<rect x="14" y="14" width="1" height="1" fill="#acc91c" stroke="#acc91c" stroke-width="0.05"></rect>
<rect x="15" y="14" width="1" height="1" fill="#262d06" stroke="#262d06" stroke-width="0.05"></rect>
<rect x="2" y="15" width="1" height="1" fill="#262d06" stroke="#262d06" stroke-width="0.05"></rect>
<rect x="3" y="15" width="1" height="1" fill="#acc91c" stroke="#acc91c" stroke-width="0.05"></rect>
<rect x="4" y="15" width="1" height="1" fill="#262d06" stroke="#262d06" stroke-width="0.05"></rect>
<rect x="5" y="15" width="1" height="1" fill="#262d06" stroke="#262d06" stroke-width="0.05"></rect>
<rect x="6" y="15" width="1" height="1" fill="#acc91c" stroke="#acc91c" stroke-width="0.05"></rect>
<rect x="7" y="15" width="1" height="1" fill="#acc91c" stroke="#acc91c" stroke-width="0.05"></rect>
<rect x="8" y="15" width="1" height="1" fill="#acc91c" stroke="#acc91c" stroke-width="0.05"></rect>
<rect x="9" y="15" width="1" height="1" fill="#acc91c" stroke="#acc91c" stroke-width="0.05"></rect>
<rect x="10" y="15" width="1" height="1" fill="#acc91c" stroke="#acc91c" stroke-width="0.05"></rect>
<rect x="11" y="15" width="1" height="1" fill="#d9ec79" stroke="#d9ec79" stroke-width="0.05"></rect>
<rect x="12" y="15" width="1" height="1" fill="#d9ec79" stroke="#d9ec79" stroke-width="0.05"></rect>
<rect x="13" y="15" width="1" height="1" fill="#d9ec79" stroke="#d9ec79" stroke-width="0.05"></rect>
<rect x="14" y="15" width="1" height="1" fill="#acc91c" stroke="#acc91c" stroke-width="0.05"></rect>
<rect x="15" y="15" width="1" height="1" fill="#262d06" stroke="#262d06" stroke-width="0.05"></rect>
<rect x="2" y="16" width="1" height="1" fill="#262d06" stroke="#262d06" stroke-width="0.05"></rect>
<rect x="3" y="16" width="1" height="1" fill="#4c590d" stroke="#4c590d" stroke-width="0.05"></rect>
<rect x="4" y="16" width="1" height="1" fill="#4c590d" stroke="#4c590d" stroke-width="0.05"></rect>
<rect x="5" y="16" width="1" height="1" fill="#262d06" stroke="#262d06" stroke-width="0.05"></rect>
<rect x="6" y="16" width="1" height="1" fill="#4c590d" stroke="#4c590d" stroke-width="0.05"></rect>
<rect x="7" y="16" width="1" height="1" fill="#262d06" stroke="#262d06" stroke-width="0.05"></rect>
<rect x="8" y="16" width="1" height="1" fill="#262d06" stroke="#262d06" stroke-width="0.05"></rect>
<rect x="9" y="16" width="1" height="1" fill="#262d06" stroke="#262d06" stroke-width="0.05"></rect>
<rect x="10" y="16" width="1" height="1" fill="#acc91c" stroke="#acc91c" stroke-width="0.05"></rect>
<rect x="11" y="16" width="1" height="1" fill="#d9ec79" stroke="#d9ec79" stroke-width="0.05"></rect>
<rect x="12" y="16" width="1" height="1" fill="#d9ec79" stroke="#d9ec79" stroke-width="0.05"></rect>
<rect x="13" y="16" width="1" height="1" fill="#d9ec79" stroke="#d9ec79" stroke-width="0.05"></rect>
<rect x="14" y="16" width="1" height="1" fill="#262d06" stroke="#262d06" stroke-width="0.05"></rect>
<rect x="15" y="16" width="1" height="1" fill="#262d06" stroke="#262d06" stroke-width="0.05"></rect>
<rect x="2" y="17" width="1" height="1" fill="#262d06" stroke="#262d06" stroke-width="0.05"></rect>
<rect x="3" y="17" width="1" height="1" fill="#262d06" stroke="#262d06" stroke-width="0.05"></rect>
<rect x="4" y="17" width="1" height="1" fill="#4c590d" stroke="#4c590d" stroke-width="0.05"></rect>
<rect x="5" y="17" width="1" height="1" fill="#262d06" stroke="#262d06" stroke-width="0.05"></rect>
<rect x="6" y="17" width="1" height="1" fill="#4c590d" stroke="#4c590d" stroke-width="0.05"></rect>
<rect x="7" y="17" width="1" height="1" fill="#4c590d" stroke="#4c590d" stroke-width="0.05"></rect>
<rect x="8" y="17" width="1" height="1" fill="#acc91c" stroke="#acc91c" stroke-width="0.05"></rect>
<rect x="9" y="17" width="1" height="1" fill="#262d06" stroke="#262d06" stroke-width="0.05"></rect>
<rect x="10" y="17" width="1" height="1" fill="#acc91c" stroke="#acc91c" stroke-width="0.05"></rect>
<rect x="11" y="17" width="1" height="1" fill="#d9ec79" stroke="#d9ec79" stroke-width="0.05"></rect>
<rect x="12" y="17" width="1" height="1" fill="#d9ec79" stroke="#d9ec79" stroke-width="0.05"></rect>
<rect x="13" y="17" width="1" height="1" fill="#d9ec79" stroke="#d9ec79" stroke-width="0.05"></rect>
<rect x="14" y="17" width="1" height="1" fill="#262d06" stroke="#262d06" stroke-width="0.05"></rect>
<rect x="3" y="18" width="1" height="1" fill="#262d06" stroke="#262d06" stroke-width="0.05"></rect>
<rect x="4" y="18" width="1" height="1" fill="#262d06" stroke="#262d06" stroke-width="0.05"></rect>
<rect x="5" y="18" width="1" height="1" fill="#4c590d" stroke="#4c590d" stroke-width="0.05"></rect>
<rect x="6" y="18" width="1" height="1" fill="#4c590d" stroke="#4c590d" stroke-width="0.05"></rect>
<rect x="7" y="18" width="1" height="1" fill="#4c590d" stroke="#4c590d" stroke-width="0.05"></rect>
<rect x="8" y="18" width="1" height="1" fill="#acc91c" stroke="#acc91c" stroke-width="0.05"></rect>
<rect x="9" y="18" width="1" height="1" fill="#acc91c" stroke="#acc91c" stroke-width="0.05"></rect>
<rect x="10" y="18" width="1" height="1" fill="#acc91c" stroke="#acc91c" stroke-width="0.05"></rect>
<rect x="11" y="18" width="1" height="1" fill="#d9ec79" stroke="#d9ec79" stroke-width="0.05"></rect>
<rect x="12" y="18" width="1" height="1" fill="#d9ec79" stroke="#d9ec79" stroke-width="0.05"></rect>
<rect x="13" y="18" width="1" height="1" fill="#4c590d" stroke="#4c590d" stroke-width="0.05"></rect>
<rect x="14" y="18" width="1" height="1" fill="#262d06" stroke="#262d06" stroke-width="0.05"></rect>
<rect x="4" y="19" width="1" height="1" fill="#262d06" stroke="#262d06" stroke-width="0.05"></rect>
<rect x="5" y="19" width="1" height="1" fill="#262d06" stroke="#262d06" stroke-width="0.05"></rect>
<rect x="6" y="19" width="1" height="1" fill="#262d06" stroke="#262d06" stroke-width="0.05"></rect>
<rect x="7" y="19" width="1" height="1" fill="#4c590d" stroke="#4c590d" stroke-width="0.05"></rect>
<rect x="8" y="19" width="1" height="1" fill="#acc91c" stroke="#acc91c" stroke-width="0.05"></rect>
<rect x="9" y="19" width="1" height="1" fill="#acc91c" stroke="#acc91c" stroke-width="0.05"></rect>
<rect x="10" y="19" width="1" height="1" fill="#262d06" stroke="#262d06" stroke-width="0.05"></rect>
<rect x="11" y="19" width="1" height="1" fill="#262d06" stroke="#262d06" stroke-width="0.05"></rect>
<rect x="12" y="19" width="1" height="1" fill="#4c590d" stroke="#4c590d" stroke-width="0.05"></rect>
<rect x="13" y="19" width="1" height="1" fill="#4c590d" stroke="#4c590d" stroke-width="0.05"></rect>
<rect x="14" y="19" width="1" height="1" fill="#262d06" stroke="#262d06" stroke-width="0.05"></rect>
<rect x="6" y="20" width="1" height="1" fill="#262d06" stroke="#262d06" stroke-width="0.05"></rect>
<rect x="7" y="20" width="1" height="1" fill="#4c590d" stroke="#4c590d" stroke-width="0.05"></rect>
<rect x="8" y="20" width="1" height="1" fill="#262d06" stroke="#262d06" stroke-width="0.05"></rect>
<rect x="9" y="20" width="1" height="1" fill="#262d06" stroke="#262d06" stroke-width="0.05"></rect>
<rect x="10" y="20" width="1" height="1" fill="#262d06" stroke="#262d06" stroke-width="0.05"></rect>
<rect x="11" y="20" width="1" height="1" fill="#262d06" stroke="#262d06" stroke-width="0.05"></rect>
<rect x="12" y="20" width="1" height="1" fill="#f2cca6" stroke="#f2cca6" stroke-width="0.05"></rect>
<rect x="13" y="20" width="1" height="1" fill="#262d06" stroke="#262d06" stroke-width="0.05"></rect>
<rect x="14" y="20" width="1" height="1" fill="#262d06" stroke="#262d06" stroke-width="0.05"></rect>
<rect x="6" y="21" width="1" height="1" fill="#262d06" stroke="#262d06" stroke-width="0.05"></rect>
<rect x="7" y="21" width="1" height="1" fill="#262d06" stroke="#262d06" stroke-width="0.05"></rect>
<rect x="8" y="21" width="1" height="1" fill="#262d06" stroke="#262d06" stroke-width="0.05"></rect>
<rect x="12" y="21" width="1" height="1" fill="#262d06" stroke="#262d06" stroke-width="0.05"></rect>
<rect x="13" y="21" width="1" height="1" fill="#262d06" stroke="#262d06" stroke-width="0.05"></rect>
</svg>
