<svg xmlns="http://www.w3.org/2000/svg" viewBox="0 0 11 11">
<style type="text/css">
.st0{fill:#555555;stroke:#555555;stroke-width:0.05;}
.st1{fill:#FFFFFF;stroke:#FFFFFF;stroke-width:0.05;}
.st2{fill:#FF9999;stroke:#FF9999;stroke-width:0.05;}
.st3{fill:#FF0000;stroke:#FF0000;stroke-width:0.05;}
.st4{fill:#AAAAAA;stroke:#AAAAAA;stroke-width:0.05;}
.st5{fill:#FF9900;stroke:#FF9900;stroke-width:0.052;}
</style>
<rect y="3" class="st0" width="1" height="1"/>
<rect y="4" class="st0" width="1" height="1"/>
<rect y="5" class="st0" width="1" height="1"/>
<rect y="6" class="st0" width="1" height="1"/>
<rect y="7" class="st0" width="1" height="1"/>
<rect y="8" class="st0" width="1" height="1"/>
<rect y="9" class="st0" width="1" height="1"/>
<rect x="1" y="1" class="st0" width="1" height="1"/>
<rect x="1" y="2" class="st0" width="1" height="1"/>
<rect x="1" y="3" class="st0" width="1" height="1"/>
<rect x="1" y="4" class="st1" width="1" height="1"/>
<rect x="1" y="5" class="st1" width="1" height="1"/>
<rect x="1" y="6" class="st1" width="1" height="1"/>
<rect x="1" y="7" class="st1" width="1" height="1"/>
<rect x="1" y="8" class="st1" width="1" height="1"/>
<rect x="1" y="9" class="st0" width="1" height="1"/>
<rect x="2" class="st0" width="1" height="1"/>
<rect x="2" y="1" class="st1" width="1" height="1"/>
<rect x="2" y="2" class="st2" width="1" height="1"/>
<rect x="2" y="3" class="st1" width="1" height="1"/>
<rect x="2" y="4" class="st1" width="1" height="1"/>
<rect x="2" y="5" class="st3" width="1" height="1"/>
<rect x="2" y="6" class="st1" width="1" height="1"/>
<rect x="2" y="7" class="st4" width="1" height="1"/>
<rect x="2" y="8" class="st1" width="1" height="1"/>
<rect x="2" y="9" class="st1" width="1" height="1"/>
<rect x="2" y="10" class="st0" width="1" height="1"/>
<rect x="3" y="1" class="st0" width="1" height="1"/>
<rect x="3" y="2" class="st1" width="1" height="1"/>
<rect x="3" y="3" class="st1" width="1" height="1"/>
<rect x="3" y="4" class="st3" width="1" height="1"/>
<rect x="3" y="5" class="st5" width="1" height="1"/>
<rect x="3" y="6" class="st3" width="1" height="1"/>
<rect x="3" y="7" class="st4" width="1" height="1"/>
<rect x="3" y="8" class="st1" width="1" height="1"/>
<rect x="3" y="9" class="st1" width="1" height="1"/>
<rect x="3" y="10" class="st0" width="1" height="1"/>
<rect x="4" y="2" class="st0" width="1" height="1"/>
<rect x="4" y="3" class="st1" width="1" height="1"/>
<rect x="4" y="4" class="st1" width="1" height="1"/>
<rect x="4" y="5" class="st3" width="1" height="1"/>
<rect x="4" y="6" class="st1" width="1" height="1"/>
<rect x="4" y="7" class="st1" width="1" height="1"/>
<rect x="4" y="8" class="st1" width="1" height="1"/>
<rect x="4" y="9" class="st1" width="1" height="1"/>
<rect x="4" y="10" class="st0" width="1" height="1"/>
<rect x="5" y="2" class="st0" width="1" height="1"/>
<rect x="5" y="3" class="st1" width="1" height="1"/>
<rect x="5" y="4" class="st1" width="1" height="1"/>
<rect x="5" y="5" class="st1" width="1" height="1"/>
<rect x="5" y="6" class="st1" width="1" height="1"/>
<rect x="5" y="7" class="st2" width="1" height="1"/>
<rect x="5" y="8" class="st1" width="1" height="1"/>
<rect x="5" y="9" class="st1" width="1" height="1"/>
<rect x="5" y="10" class="st0" width="1" height="1"/>
<rect x="6" y="2" class="st0" width="1" height="1"/>
<rect x="6" y="3" class="st1" width="1" height="1"/>
<rect x="6" y="4" class="st1" width="1" height="1"/>
<rect x="6" y="5" class="st3" width="1" height="1"/>
<rect x="6" y="6" class="st1" width="1" height="1"/>
<rect x="6" y="7" class="st1" width="1" height="1"/>
<rect x="6" y="8" class="st1" width="1" height="1"/>
<rect x="6" y="9" class="st1" width="1" height="1"/>
<rect x="6" y="10" class="st0" width="1" height="1"/>
<rect x="7" y="1" class="st0" width="1" height="1"/>
<rect x="7" y="2" class="st1" width="1" height="1"/>
<rect x="7" y="3" class="st1" width="1" height="1"/>
<rect x="7" y="4" class="st3" width="1" height="1"/>
<rect x="7" y="5" class="st5" width="1" height="1"/>
<rect x="7" y="6" class="st3" width="1" height="1"/>
<rect x="7" y="7" class="st4" width="1" height="1"/>
<rect x="7" y="8" class="st1" width="1" height="1"/>
<rect x="7" y="9" class="st1" width="1" height="1"/>
<rect x="7" y="10" class="st0" width="1" height="1"/>
<rect x="8" class="st0" width="1" height="1"/>
<rect x="8" y="1" class="st1" width="1" height="1"/>
<rect x="8" y="2" class="st2" width="1" height="1"/>
<rect x="8" y="3" class="st1" width="1" height="1"/>
<rect x="8" y="4" class="st1" width="1" height="1"/>
<rect x="8" y="5" class="st3" width="1" height="1"/>
<rect x="8" y="6" class="st1" width="1" height="1"/>
<rect x="8" y="7" class="st4" width="1" height="1"/>
<rect x="8" y="8" class="st1" width="1" height="1"/>
<rect x="8" y="9" class="st1" width="1" height="1"/>
<rect x="8" y="10" class="st0" width="1" height="1"/>
<rect x="9" y="1" class="st0" width="1" height="1"/>
<rect x="9" y="2" class="st0" width="1" height="1"/>
<rect x="9" y="3" class="st0" width="1" height="1"/>
<rect x="9" y="4" class="st1" width="1" height="1"/>
<rect x="9" y="5" class="st1" width="1" height="1"/>
<rect x="9" y="6" class="st1" width="1" height="1"/>
<rect x="9" y="7" class="st1" width="1" height="1"/>
<rect x="9" y="8" class="st1" width="1" height="1"/>
<rect x="9" y="9" class="st0" width="1" height="1"/>
<rect x="10" y="3" class="st0" width="1" height="1"/>
<rect x="10" y="4" class="st0" width="1" height="1"/>
<rect x="10" y="5" class="st0" width="1" height="1"/>
<rect x="10" y="6" class="st0" width="1" height="1"/>
<rect x="10" y="7" class="st0" width="1" height="1"/>
<rect x="10" y="8" class="st0" width="1" height="1"/>
</svg>
