<svg viewBox="0 0 22 22" xmlns="http://www.w3.org/2000/svg">
<rect x="0" y="0" width="22" height="22" fill="#4d1300" opacity="0.5"></rect>
<text y="-0.38" font-family="Courier New, Courier" font-weight="bold" font-size="1.8px" fill="#e63800" opacity="0.5"><tspan x="0.2" dy="2">01000011011110010111</tspan>
<tspan x="0.2" dy="2">00000110100001100101</tspan>
<tspan x="0.2" dy="2">01110010011100000111</tspan>
<tspan x="0.2" dy="2">01010110111001101011</tspan>
<tspan x="0.2" dy="2">01110011001000000111</tspan>
<tspan x="0.2" dy="2">01110111001001101001</tspan>
<tspan x="0.2" dy="2">01110100011001010010</tspan>
<tspan x="0.2" dy="2">00000110001101101111</tspan>
<tspan x="0.2" dy="2">01100100011001010010</tspan>
<tspan x="0.2" dy="2">11100010000000110001</tspan>
<tspan x="0.2" dy="2">00111001001110010011</tspan>
<tspan x="0.2" dy="2">0011</tspan>
</text>
<rect x="11" y="7" width="1" height="1" fill="#270a29" stroke="#270a29" stroke-width="0.05"></rect>
<rect x="17" y="7" width="1" height="1" fill="#270a29" stroke="#270a29" stroke-width="0.05"></rect>
<rect x="10" y="8" width="1" height="1" fill="#270a29" stroke="#270a29" stroke-width="0.05"></rect>
<rect x="11" y="8" width="1" height="1" fill="#4f1452" stroke="#4f1452" stroke-width="0.05"></rect>
<rect x="12" y="8" width="1" height="1" fill="#270a29" stroke="#270a29" stroke-width="0.05"></rect>
<rect x="16" y="8" width="1" height="1" fill="#270a29" stroke="#270a29" stroke-width="0.05"></rect>
<rect x="17" y="8" width="1" height="1" fill="#b12eb8" stroke="#b12eb8" stroke-width="0.05"></rect>
<rect x="18" y="8" width="1" height="1" fill="#270a29" stroke="#270a29" stroke-width="0.05"></rect>
<rect x="10" y="9" width="1" height="1" fill="#270a29" stroke="#270a29" stroke-width="0.05"></rect>
<rect x="11" y="9" width="1" height="1" fill="#bfadeb" stroke="#bfadeb" stroke-width="0.05"></rect>
<rect x="12" y="9" width="1" height="1" fill="#4f1452" stroke="#4f1452" stroke-width="0.05"></rect>
<rect x="13" y="9" width="1" height="1" fill="#270a29" stroke="#270a29" stroke-width="0.05"></rect>
<rect x="14" y="9" width="1" height="1" fill="#270a29" stroke="#270a29" stroke-width="0.05"></rect>
<rect x="15" y="9" width="1" height="1" fill="#270a29" stroke="#270a29" stroke-width="0.05"></rect>
<rect x="16" y="9" width="1" height="1" fill="#b12eb8" stroke="#b12eb8" stroke-width="0.05"></rect>
<rect x="17" y="9" width="1" height="1" fill="#bfadeb" stroke="#bfadeb" stroke-width="0.05"></rect>
<rect x="18" y="9" width="1" height="1" fill="#270a29" stroke="#270a29" stroke-width="0.05"></rect>
<rect x="5" y="10" width="1" height="1" fill="#270a29" stroke="#270a29" stroke-width="0.05"></rect>
<rect x="6" y="10" width="1" height="1" fill="#270a29" stroke="#270a29" stroke-width="0.05"></rect>
<rect x="7" y="10" width="1" height="1" fill="#270a29" stroke="#270a29" stroke-width="0.05"></rect>
<rect x="8" y="10" width="1" height="1" fill="#270a29" stroke="#270a29" stroke-width="0.05"></rect>
<rect x="9" y="10" width="1" height="1" fill="#270a29" stroke="#270a29" stroke-width="0.05"></rect>
<rect x="10" y="10" width="1" height="1" fill="#270a29" stroke="#270a29" stroke-width="0.05"></rect>
<rect x="11" y="10" width="1" height="1" fill="#b12eb8" stroke="#b12eb8" stroke-width="0.05"></rect>
<rect x="12" y="10" width="1" height="1" fill="#b12eb8" stroke="#b12eb8" stroke-width="0.05"></rect>
<rect x="13" y="10" width="1" height="1" fill="#b12eb8" stroke="#b12eb8" stroke-width="0.05"></rect>
<rect x="14" y="10" width="1" height="1" fill="#b12eb8" stroke="#b12eb8" stroke-width="0.05"></rect>
<rect x="15" y="10" width="1" height="1" fill="#b12eb8" stroke="#b12eb8" stroke-width="0.05"></rect>
<rect x="16" y="10" width="1" height="1" fill="#b12eb8" stroke="#b12eb8" stroke-width="0.05"></rect>
<rect x="17" y="10" width="1" height="1" fill="#b12eb8" stroke="#b12eb8" stroke-width="0.05"></rect>
<rect x="18" y="10" width="1" height="1" fill="#270a29" stroke="#270a29" stroke-width="0.05"></rect>
<rect x="19" y="10" width="1" height="1" fill="#270a29" stroke="#270a29" stroke-width="0.05"></rect>
<rect x="2" y="11" width="1" height="1" fill="#270a29" stroke="#270a29" stroke-width="0.05"></rect>
<rect x="3" y="11" width="1" height="1" fill="#270a29" stroke="#270a29" stroke-width="0.05"></rect>
<rect x="4" y="11" width="1" height="1" fill="#270a29" stroke="#270a29" stroke-width="0.05"></rect>
<rect x="5" y="11" width="1" height="1" fill="#270a29" stroke="#270a29" stroke-width="0.05"></rect>
<rect x="6" y="11" width="1" height="1" fill="#b12eb8" stroke="#b12eb8" stroke-width="0.05"></rect>
<rect x="7" y="11" width="1" height="1" fill="#b12eb8" stroke="#b12eb8" stroke-width="0.05"></rect>
<rect x="8" y="11" width="1" height="1" fill="#270a29" stroke="#270a29" stroke-width="0.05"></rect>
<rect x="9" y="11" width="1" height="1" fill="#270a29" stroke="#270a29" stroke-width="0.05"></rect>
<rect x="10" y="11" width="1" height="1" fill="#b12eb8" stroke="#b12eb8" stroke-width="0.05"></rect>
<rect x="11" y="11" width="1" height="1" fill="#b12eb8" stroke="#b12eb8" stroke-width="0.05"></rect>
<rect x="12" y="11" width="1" height="1" fill="#ff9900" stroke="#ff9900" stroke-width="0.05"></rect>
<rect x="13" y="11" width="1" height="1" fill="#b12eb8" stroke="#b12eb8" stroke-width="0.05"></rect>
<rect x="14" y="11" width="1" height="1" fill="#b12eb8" stroke="#b12eb8" stroke-width="0.05"></rect>
<rect x="15" y="11" width="1" height="1" fill="#b12eb8" stroke="#b12eb8" stroke-width="0.05"></rect>
<rect x="16" y="11" width="1" height="1" fill="#ff9900" stroke="#ff9900" stroke-width="0.05"></rect>
<rect x="17" y="11" width="1" height="1" fill="#4f1452" stroke="#4f1452" stroke-width="0.05"></rect>
<rect x="18" y="11" width="1" height="1" fill="#b12eb8" stroke="#b12eb8" stroke-width="0.05"></rect>
<rect x="19" y="11" width="1" height="1" fill="#270a29" stroke="#270a29" stroke-width="0.05"></rect>
<rect x="2" y="12" width="1" height="1" fill="#270a29" stroke="#270a29" stroke-width="0.05"></rect>
<rect x="3" y="12" width="1" height="1" fill="#4f1452" stroke="#4f1452" stroke-width="0.05"></rect>
<rect x="4" y="12" width="1" height="1" fill="#4f1452" stroke="#4f1452" stroke-width="0.05"></rect>
<rect x="5" y="12" width="1" height="1" fill="#4f1452" stroke="#4f1452" stroke-width="0.05"></rect>
<rect x="6" y="12" width="1" height="1" fill="#b12eb8" stroke="#b12eb8" stroke-width="0.05"></rect>
<rect x="7" y="12" width="1" height="1" fill="#b12eb8" stroke="#b12eb8" stroke-width="0.05"></rect>
<rect x="8" y="12" width="1" height="1" fill="#b12eb8" stroke="#b12eb8" stroke-width="0.05"></rect>
<rect x="9" y="12" width="1" height="1" fill="#270a29" stroke="#270a29" stroke-width="0.05"></rect>
<rect x="10" y="12" width="1" height="1" fill="#b12eb8" stroke="#b12eb8" stroke-width="0.05"></rect>
<rect x="11" y="12" width="1" height="1" fill="#ff9900" stroke="#ff9900" stroke-width="0.05"></rect>
<rect x="12" y="12" width="1" height="1" fill="#ffe0b3" stroke="#ffe0b3" stroke-width="0.05"></rect>
<rect x="13" y="12" width="1" height="1" fill="#ff9900" stroke="#ff9900" stroke-width="0.05"></rect>
<rect x="14" y="12" width="1" height="1" fill="#b12eb8" stroke="#b12eb8" stroke-width="0.05"></rect>
<rect x="15" y="12" width="1" height="1" fill="#ff9900" stroke="#ff9900" stroke-width="0.05"></rect>
<rect x="16" y="12" width="1" height="1" fill="#ffe0b3" stroke="#ffe0b3" stroke-width="0.05"></rect>
<rect x="17" y="12" width="1" height="1" fill="#ff9900" stroke="#ff9900" stroke-width="0.05"></rect>
<rect x="18" y="12" width="1" height="1" fill="#b12eb8" stroke="#b12eb8" stroke-width="0.05"></rect>
<rect x="19" y="12" width="1" height="1" fill="#270a29" stroke="#270a29" stroke-width="0.05"></rect>
<rect x="1" y="13" width="1" height="1" fill="#270a29" stroke="#270a29" stroke-width="0.05"></rect>
<rect x="2" y="13" width="1" height="1" fill="#270a29" stroke="#270a29" stroke-width="0.05"></rect>
<rect x="3" y="13" width="1" height="1" fill="#4f1452" stroke="#4f1452" stroke-width="0.05"></rect>
<rect x="4" y="13" width="1" height="1" fill="#4f1452" stroke="#4f1452" stroke-width="0.05"></rect>
<rect x="5" y="13" width="1" height="1" fill="#b12eb8" stroke="#b12eb8" stroke-width="0.05"></rect>
<rect x="6" y="13" width="1" height="1" fill="#b12eb8" stroke="#b12eb8" stroke-width="0.05"></rect>
<rect x="7" y="13" width="1" height="1" fill="#b12eb8" stroke="#b12eb8" stroke-width="0.05"></rect>
<rect x="8" y="13" width="1" height="1" fill="#b12eb8" stroke="#b12eb8" stroke-width="0.05"></rect>
<rect x="9" y="13" width="1" height="1" fill="#270a29" stroke="#270a29" stroke-width="0.05"></rect>
<rect x="10" y="13" width="1" height="1" fill="#4f1452" stroke="#4f1452" stroke-width="0.05"></rect>
<rect x="11" y="13" width="1" height="1" fill="#b12eb8" stroke="#b12eb8" stroke-width="0.05"></rect>
<rect x="12" y="13" width="1" height="1" fill="#ff9900" stroke="#ff9900" stroke-width="0.05"></rect>
<rect x="13" y="13" width="1" height="1" fill="#b12eb8" stroke="#b12eb8" stroke-width="0.05"></rect>
<rect x="14" y="13" width="1" height="1" fill="#b12eb8" stroke="#b12eb8" stroke-width="0.05"></rect>
<rect x="15" y="13" width="1" height="1" fill="#b12eb8" stroke="#b12eb8" stroke-width="0.05"></rect>
<rect x="16" y="13" width="1" height="1" fill="#ff9900" stroke="#ff9900" stroke-width="0.05"></rect>
<rect x="17" y="13" width="1" height="1" fill="#b12eb8" stroke="#b12eb8" stroke-width="0.05"></rect>
<rect x="18" y="13" width="1" height="1" fill="#b12eb8" stroke="#b12eb8" stroke-width="0.05"></rect>
<rect x="19" y="13" width="1" height="1" fill="#270a29" stroke="#270a29" stroke-width="0.05"></rect>
<rect x="1" y="14" width="1" height="1" fill="#270a29" stroke="#270a29" stroke-width="0.05"></rect>
<rect x="2" y="14" width="1" height="1" fill="#b12eb8" stroke="#b12eb8" stroke-width="0.05"></rect>
<rect x="3" y="14" width="1" height="1" fill="#b12eb8" stroke="#b12eb8" stroke-width="0.05"></rect>
<rect x="4" y="14" width="1" height="1" fill="#b12eb8" stroke="#b12eb8" stroke-width="0.05"></rect>
<rect x="5" y="14" width="1" height="1" fill="#b12eb8" stroke="#b12eb8" stroke-width="0.05"></rect>
<rect x="6" y="14" width="1" height="1" fill="#b12eb8" stroke="#b12eb8" stroke-width="0.05"></rect>
<rect x="7" y="14" width="1" height="1" fill="#b12eb8" stroke="#b12eb8" stroke-width="0.05"></rect>
<rect x="8" y="14" width="1" height="1" fill="#b12eb8" stroke="#b12eb8" stroke-width="0.05"></rect>
<rect x="9" y="14" width="1" height="1" fill="#270a29" stroke="#270a29" stroke-width="0.05"></rect>
<rect x="10" y="14" width="1" height="1" fill="#4f1452" stroke="#4f1452" stroke-width="0.05"></rect>
<rect x="11" y="14" width="1" height="1" fill="#dc85e0" stroke="#dc85e0" stroke-width="0.05"></rect>
<rect x="12" y="14" width="1" height="1" fill="#dc85e0" stroke="#dc85e0" stroke-width="0.05"></rect>
<rect x="13" y="14" width="1" height="1" fill="#b12eb8" stroke="#b12eb8" stroke-width="0.05"></rect>
<rect x="14" y="14" width="1" height="1" fill="#bfadeb" stroke="#bfadeb" stroke-width="0.05"></rect>
<rect x="15" y="14" width="1" height="1" fill="#b12eb8" stroke="#b12eb8" stroke-width="0.05"></rect>
<rect x="16" y="14" width="1" height="1" fill="#dc85e0" stroke="#dc85e0" stroke-width="0.05"></rect>
<rect x="17" y="14" width="1" height="1" fill="#dc85e0" stroke="#dc85e0" stroke-width="0.05"></rect>
<rect x="18" y="14" width="1" height="1" fill="#b12eb8" stroke="#b12eb8" stroke-width="0.05"></rect>
<rect x="19" y="14" width="1" height="1" fill="#270a29" stroke="#270a29" stroke-width="0.05"></rect>
<rect x="1" y="15" width="1" height="1" fill="#270a29" stroke="#270a29" stroke-width="0.05"></rect>
<rect x="2" y="15" width="1" height="1" fill="#b12eb8" stroke="#b12eb8" stroke-width="0.05"></rect>
<rect x="3" y="15" width="1" height="1" fill="#b12eb8" stroke="#b12eb8" stroke-width="0.05"></rect>
<rect x="4" y="15" width="1" height="1" fill="#b12eb8" stroke="#b12eb8" stroke-width="0.05"></rect>
<rect x="5" y="15" width="1" height="1" fill="#b12eb8" stroke="#b12eb8" stroke-width="0.05"></rect>
<rect x="6" y="15" width="1" height="1" fill="#270a29" stroke="#270a29" stroke-width="0.05"></rect>
<rect x="7" y="15" width="1" height="1" fill="#4f1452" stroke="#4f1452" stroke-width="0.05"></rect>
<rect x="8" y="15" width="1" height="1" fill="#b12eb8" stroke="#b12eb8" stroke-width="0.05"></rect>
<rect x="9" y="15" width="1" height="1" fill="#270a29" stroke="#270a29" stroke-width="0.05"></rect>
<rect x="10" y="15" width="1" height="1" fill="#b12eb8" stroke="#b12eb8" stroke-width="0.05"></rect>
<rect x="11" y="15" width="1" height="1" fill="#b12eb8" stroke="#b12eb8" stroke-width="0.05"></rect>
<rect x="12" y="15" width="1" height="1" fill="#b12eb8" stroke="#b12eb8" stroke-width="0.05"></rect>
<rect x="13" y="15" width="1" height="1" fill="#b12eb8" stroke="#b12eb8" stroke-width="0.05"></rect>
<rect x="14" y="15" width="1" height="1" fill="#b12eb8" stroke="#b12eb8" stroke-width="0.05"></rect>
<rect x="15" y="15" width="1" height="1" fill="#b12eb8" stroke="#b12eb8" stroke-width="0.05"></rect>
<rect x="16" y="15" width="1" height="1" fill="#b12eb8" stroke="#b12eb8" stroke-width="0.05"></rect>
<rect x="17" y="15" width="1" height="1" fill="#b12eb8" stroke="#b12eb8" stroke-width="0.05"></rect>
<rect x="18" y="15" width="1" height="1" fill="#4f1452" stroke="#4f1452" stroke-width="0.05"></rect>
<rect x="19" y="15" width="1" height="1" fill="#270a29" stroke="#270a29" stroke-width="0.05"></rect>
<rect x="20" y="15" width="1" height="1" fill="#270a29" stroke="#270a29" stroke-width="0.05"></rect>
<rect x="1" y="16" width="1" height="1" fill="#270a29" stroke="#270a29" stroke-width="0.05"></rect>
<rect x="2" y="16" width="1" height="1" fill="#b12eb8" stroke="#b12eb8" stroke-width="0.05"></rect>
<rect x="3" y="16" width="1" height="1" fill="#b12eb8" stroke="#b12eb8" stroke-width="0.05"></rect>
<rect x="4" y="16" width="1" height="1" fill="#270a29" stroke="#270a29" stroke-width="0.05"></rect>
<rect x="5" y="16" width="1" height="1" fill="#270a29" stroke="#270a29" stroke-width="0.05"></rect>
<rect x="6" y="16" width="1" height="1" fill="#4f1452" stroke="#4f1452" stroke-width="0.05"></rect>
<rect x="7" y="16" width="1" height="1" fill="#4f1452" stroke="#4f1452" stroke-width="0.05"></rect>
<rect x="8" y="16" width="1" height="1" fill="#b12eb8" stroke="#b12eb8" stroke-width="0.05"></rect>
<rect x="9" y="16" width="1" height="1" fill="#b12eb8" stroke="#b12eb8" stroke-width="0.05"></rect>
<rect x="10" y="16" width="1" height="1" fill="#270a29" stroke="#270a29" stroke-width="0.05"></rect>
<rect x="11" y="16" width="1" height="1" fill="#b12eb8" stroke="#b12eb8" stroke-width="0.05"></rect>
<rect x="12" y="16" width="1" height="1" fill="#b12eb8" stroke="#b12eb8" stroke-width="0.05"></rect>
<rect x="13" y="16" width="1" height="1" fill="#b12eb8" stroke="#b12eb8" stroke-width="0.05"></rect>
<rect x="14" y="16" width="1" height="1" fill="#b12eb8" stroke="#b12eb8" stroke-width="0.05"></rect>
<rect x="15" y="16" width="1" height="1" fill="#b12eb8" stroke="#b12eb8" stroke-width="0.05"></rect>
<rect x="16" y="16" width="1" height="1" fill="#b12eb8" stroke="#b12eb8" stroke-width="0.05"></rect>
<rect x="17" y="16" width="1" height="1" fill="#b12eb8" stroke="#b12eb8" stroke-width="0.05"></rect>
<rect x="18" y="16" width="1" height="1" fill="#270a29" stroke="#270a29" stroke-width="0.05"></rect>
<rect x="19" y="16" width="1" height="1" fill="#270a29" stroke="#270a29" stroke-width="0.05"></rect>
<rect x="20" y="16" width="1" height="1" fill="#270a29" stroke="#270a29" stroke-width="0.05"></rect>
<rect x="1" y="17" width="1" height="1" fill="#270a29" stroke="#270a29" stroke-width="0.05"></rect>
<rect x="2" y="17" width="1" height="1" fill="#270a29" stroke="#270a29" stroke-width="0.05"></rect>
<rect x="3" y="17" width="1" height="1" fill="#b12eb8" stroke="#b12eb8" stroke-width="0.05"></rect>
<rect x="4" y="17" width="1" height="1" fill="#b12eb8" stroke="#b12eb8" stroke-width="0.05"></rect>
<rect x="5" y="17" width="1" height="1" fill="#270a29" stroke="#270a29" stroke-width="0.05"></rect>
<rect x="6" y="17" width="1" height="1" fill="#b12eb8" stroke="#b12eb8" stroke-width="0.05"></rect>
<rect x="7" y="17" width="1" height="1" fill="#dc85e0" stroke="#dc85e0" stroke-width="0.05"></rect>
<rect x="8" y="17" width="1" height="1" fill="#dc85e0" stroke="#dc85e0" stroke-width="0.05"></rect>
<rect x="9" y="17" width="1" height="1" fill="#270a29" stroke="#270a29" stroke-width="0.05"></rect>
<rect x="10" y="17" width="1" height="1" fill="#270a29" stroke="#270a29" stroke-width="0.05"></rect>
<rect x="11" y="17" width="1" height="1" fill="#270a29" stroke="#270a29" stroke-width="0.05"></rect>
<rect x="12" y="17" width="1" height="1" fill="#270a29" stroke="#270a29" stroke-width="0.05"></rect>
<rect x="13" y="17" width="1" height="1" fill="#270a29" stroke="#270a29" stroke-width="0.05"></rect>
<rect x="14" y="17" width="1" height="1" fill="#270a29" stroke="#270a29" stroke-width="0.05"></rect>
<rect x="15" y="17" width="1" height="1" fill="#270a29" stroke="#270a29" stroke-width="0.05"></rect>
<rect x="16" y="17" width="1" height="1" fill="#270a29" stroke="#270a29" stroke-width="0.05"></rect>
<rect x="17" y="17" width="1" height="1" fill="#270a29" stroke="#270a29" stroke-width="0.05"></rect>
<rect x="18" y="17" width="1" height="1" fill="#4f1452" stroke="#4f1452" stroke-width="0.05"></rect>
<rect x="19" y="17" width="1" height="1" fill="#4f1452" stroke="#4f1452" stroke-width="0.05"></rect>
<rect x="20" y="17" width="1" height="1" fill="#270a29" stroke="#270a29" stroke-width="0.05"></rect>
<rect x="2" y="18" width="1" height="1" fill="#270a29" stroke="#270a29" stroke-width="0.05"></rect>
<rect x="3" y="18" width="1" height="1" fill="#270a29" stroke="#270a29" stroke-width="0.05"></rect>
<rect x="4" y="18" width="1" height="1" fill="#b12eb8" stroke="#b12eb8" stroke-width="0.05"></rect>
<rect x="5" y="18" width="1" height="1" fill="#b12eb8" stroke="#b12eb8" stroke-width="0.05"></rect>
<rect x="6" y="18" width="1" height="1" fill="#270a29" stroke="#270a29" stroke-width="0.05"></rect>
<rect x="7" y="18" width="1" height="1" fill="#270a29" stroke="#270a29" stroke-width="0.05"></rect>
<rect x="8" y="18" width="1" height="1" fill="#270a29" stroke="#270a29" stroke-width="0.05"></rect>
<rect x="9" y="18" width="1" height="1" fill="#270a29" stroke="#270a29" stroke-width="0.05"></rect>
<rect x="10" y="18" width="1" height="1" fill="#4f1452" stroke="#4f1452" stroke-width="0.05"></rect>
<rect x="11" y="18" width="1" height="1" fill="#270a29" stroke="#270a29" stroke-width="0.05"></rect>
<rect x="12" y="18" width="1" height="1" fill="#b12eb8" stroke="#b12eb8" stroke-width="0.05"></rect>
<rect x="13" y="18" width="1" height="1" fill="#b12eb8" stroke="#b12eb8" stroke-width="0.05"></rect>
<rect x="14" y="18" width="1" height="1" fill="#bfadeb" stroke="#bfadeb" stroke-width="0.05"></rect>
<rect x="15" y="18" width="1" height="1" fill="#270a29" stroke="#270a29" stroke-width="0.05"></rect>
<rect x="16" y="18" width="1" height="1" fill="#bfadeb" stroke="#bfadeb" stroke-width="0.05"></rect>
<rect x="17" y="18" width="1" height="1" fill="#4f1452" stroke="#4f1452" stroke-width="0.05"></rect>
<rect x="18" y="18" width="1" height="1" fill="#4f1452" stroke="#4f1452" stroke-width="0.05"></rect>
<rect x="19" y="18" width="1" height="1" fill="#270a29" stroke="#270a29" stroke-width="0.05"></rect>
<rect x="20" y="18" width="1" height="1" fill="#270a29" stroke="#270a29" stroke-width="0.05"></rect>
<rect x="3" y="19" width="1" height="1" fill="#270a29" stroke="#270a29" stroke-width="0.05"></rect>
<rect x="4" y="19" width="1" height="1" fill="#270a29" stroke="#270a29" stroke-width="0.05"></rect>
<rect x="5" y="19" width="1" height="1" fill="#b12eb8" stroke="#b12eb8" stroke-width="0.05"></rect>
<rect x="6" y="19" width="1" height="1" fill="#b12eb8" stroke="#b12eb8" stroke-width="0.05"></rect>
<rect x="7" y="19" width="1" height="1" fill="#4f1452" stroke="#4f1452" stroke-width="0.05"></rect>
<rect x="8" y="19" width="1" height="1" fill="#4f1452" stroke="#4f1452" stroke-width="0.05"></rect>
<rect x="9" y="19" width="1" height="1" fill="#4f1452" stroke="#4f1452" stroke-width="0.05"></rect>
<rect x="10" y="19" width="1" height="1" fill="#4f1452" stroke="#4f1452" stroke-width="0.05"></rect>
<rect x="11" y="19" width="1" height="1" fill="#270a29" stroke="#270a29" stroke-width="0.05"></rect>
<rect x="12" y="19" width="1" height="1" fill="#270a29" stroke="#270a29" stroke-width="0.05"></rect>
<rect x="13" y="19" width="1" height="1" fill="#270a29" stroke="#270a29" stroke-width="0.05"></rect>
<rect x="14" y="19" width="1" height="1" fill="#270a29" stroke="#270a29" stroke-width="0.05"></rect>
<rect x="15" y="19" width="1" height="1" fill="#270a29" stroke="#270a29" stroke-width="0.05"></rect>
<rect x="16" y="19" width="1" height="1" fill="#270a29" stroke="#270a29" stroke-width="0.05"></rect>
<rect x="17" y="19" width="1" height="1" fill="#270a29" stroke="#270a29" stroke-width="0.05"></rect>
<rect x="18" y="19" width="1" height="1" fill="#270a29" stroke="#270a29" stroke-width="0.05"></rect>
<rect x="19" y="19" width="1" height="1" fill="#270a29" stroke="#270a29" stroke-width="0.05"></rect>
<rect x="4" y="20" width="1" height="1" fill="#270a29" stroke="#270a29" stroke-width="0.05"></rect>
<rect x="5" y="20" width="1" height="1" fill="#270a29" stroke="#270a29" stroke-width="0.05"></rect>
<rect x="6" y="20" width="1" height="1" fill="#270a29" stroke="#270a29" stroke-width="0.05"></rect>
<rect x="7" y="20" width="1" height="1" fill="#270a29" stroke="#270a29" stroke-width="0.05"></rect>
<rect x="8" y="20" width="1" height="1" fill="#270a29" stroke="#270a29" stroke-width="0.05"></rect>
<rect x="9" y="20" width="1" height="1" fill="#270a29" stroke="#270a29" stroke-width="0.05"></rect>
<rect x="10" y="20" width="1" height="1" fill="#270a29" stroke="#270a29" stroke-width="0.05"></rect>
<rect x="11" y="20" width="1" height="1" fill="#270a29" stroke="#270a29" stroke-width="0.05"></rect>
</svg>
