<svg viewBox="0 0 22 22" xmlns="http://www.w3.org/2000/svg">
<rect x="0" y="0" width="22" height="22" fill="#64e600" opacity="0.5"></rect>
<text y="-0.38" font-family="Courier New, Courier" font-weight="bold" font-size="1.8px" fill="#214d00" opacity="0.5"><tspan x="0.2" dy="2">01000011011110010111</tspan>
<tspan x="0.2" dy="2">00000110100001100101</tspan>
<tspan x="0.2" dy="2">01110010011100000111</tspan>
<tspan x="0.2" dy="2">01010110111001101011</tspan>
<tspan x="0.2" dy="2">01110011001000000111</tspan>
<tspan x="0.2" dy="2">01110111001001101001</tspan>
<tspan x="0.2" dy="2">01110100011001010010</tspan>
<tspan x="0.2" dy="2">00000110001101101111</tspan>
<tspan x="0.2" dy="2">01100100011001010010</tspan>
<tspan x="0.2" dy="2">11100010000000110001</tspan>
<tspan x="0.2" dy="2">00111001001110010011</tspan>
<tspan x="0.2" dy="2">0011</tspan>
</text>
<rect x="8" y="0" width="1" height="1" fill="#321401" stroke="#321401" stroke-width="0.05"></rect>
<rect x="9" y="0" width="1" height="1" fill="#321401" stroke="#321401" stroke-width="0.05"></rect>
<rect x="15" y="0" width="1" height="1" fill="#321401" stroke="#321401" stroke-width="0.05"></rect>
<rect x="8" y="1" width="1" height="1" fill="#321401" stroke="#321401" stroke-width="0.05"></rect>
<rect x="9" y="1" width="1" height="1" fill="#e15905" stroke="#e15905" stroke-width="0.05"></rect>
<rect x="10" y="1" width="1" height="1" fill="#321401" stroke="#321401" stroke-width="0.05"></rect>
<rect x="14" y="1" width="1" height="1" fill="#321401" stroke="#321401" stroke-width="0.05"></rect>
<rect x="15" y="1" width="1" height="1" fill="#642802" stroke="#642802" stroke-width="0.05"></rect>
<rect x="16" y="1" width="1" height="1" fill="#321401" stroke="#321401" stroke-width="0.05"></rect>
<rect x="8" y="2" width="1" height="1" fill="#321401" stroke="#321401" stroke-width="0.05"></rect>
<rect x="9" y="2" width="1" height="1" fill="#fd9bb7" stroke="#fd9bb7" stroke-width="0.05"></rect>
<rect x="10" y="2" width="1" height="1" fill="#e15905" stroke="#e15905" stroke-width="0.05"></rect>
<rect x="11" y="2" width="1" height="1" fill="#321401" stroke="#321401" stroke-width="0.05"></rect>
<rect x="12" y="2" width="1" height="1" fill="#321401" stroke="#321401" stroke-width="0.05"></rect>
<rect x="13" y="2" width="1" height="1" fill="#321401" stroke="#321401" stroke-width="0.05"></rect>
<rect x="14" y="2" width="1" height="1" fill="#642802" stroke="#642802" stroke-width="0.05"></rect>
<rect x="15" y="2" width="1" height="1" fill="#fd9bb7" stroke="#fd9bb7" stroke-width="0.05"></rect>
<rect x="16" y="2" width="1" height="1" fill="#321401" stroke="#321401" stroke-width="0.05"></rect>
<rect x="7" y="3" width="1" height="1" fill="#321401" stroke="#321401" stroke-width="0.05"></rect>
<rect x="8" y="3" width="1" height="1" fill="#321401" stroke="#321401" stroke-width="0.05"></rect>
<rect x="9" y="3" width="1" height="1" fill="#e15905" stroke="#e15905" stroke-width="0.05"></rect>
<rect x="10" y="3" width="1" height="1" fill="#e15905" stroke="#e15905" stroke-width="0.05"></rect>
<rect x="11" y="3" width="1" height="1" fill="#e15905" stroke="#e15905" stroke-width="0.05"></rect>
<rect x="12" y="3" width="1" height="1" fill="#e15905" stroke="#e15905" stroke-width="0.05"></rect>
<rect x="13" y="3" width="1" height="1" fill="#642802" stroke="#642802" stroke-width="0.05"></rect>
<rect x="14" y="3" width="1" height="1" fill="#642802" stroke="#642802" stroke-width="0.05"></rect>
<rect x="15" y="3" width="1" height="1" fill="#642802" stroke="#642802" stroke-width="0.05"></rect>
<rect x="16" y="3" width="1" height="1" fill="#321401" stroke="#321401" stroke-width="0.05"></rect>
<rect x="17" y="3" width="1" height="1" fill="#321401" stroke="#321401" stroke-width="0.05"></rect>
<rect x="7" y="4" width="1" height="1" fill="#321401" stroke="#321401" stroke-width="0.05"></rect>
<rect x="8" y="4" width="1" height="1" fill="#8dd122" stroke="#8dd122" stroke-width="0.05"></rect>
<rect x="9" y="4" width="1" height="1" fill="#8dd122" stroke="#8dd122" stroke-width="0.05"></rect>
<rect x="10" y="4" width="1" height="1" fill="#8dd122" stroke="#8dd122" stroke-width="0.05"></rect>
<rect x="11" y="4" width="1" height="1" fill="#8dd122" stroke="#8dd122" stroke-width="0.05"></rect>
<rect x="12" y="4" width="1" height="1" fill="#642802" stroke="#642802" stroke-width="0.05"></rect>
<rect x="13" y="4" width="1" height="1" fill="#8dd122" stroke="#8dd122" stroke-width="0.05"></rect>
<rect x="14" y="4" width="1" height="1" fill="#8dd122" stroke="#8dd122" stroke-width="0.05"></rect>
<rect x="15" y="4" width="1" height="1" fill="#8dd122" stroke="#8dd122" stroke-width="0.05"></rect>
<rect x="16" y="4" width="1" height="1" fill="#8dd122" stroke="#8dd122" stroke-width="0.05"></rect>
<rect x="17" y="4" width="1" height="1" fill="#321401" stroke="#321401" stroke-width="0.05"></rect>
<rect x="6" y="5" width="1" height="1" fill="#8dd122" stroke="#8dd122" stroke-width="0.05"></rect>
<rect x="7" y="5" width="1" height="1" fill="#8dd122" stroke="#8dd122" stroke-width="0.05"></rect>
<rect x="8" y="5" width="1" height="1" fill="#8dd122" stroke="#8dd122" stroke-width="0.05"></rect>
<rect x="9" y="5" width="1" height="1" fill="#ffffff" stroke="#ffffff" stroke-width="0.05"></rect>
<rect x="10" y="5" width="1" height="1" fill="#000000" stroke="#000000" stroke-width="0.05"></rect>
<rect x="11" y="5" width="1" height="1" fill="#8dd122" stroke="#8dd122" stroke-width="0.05"></rect>
<rect x="12" y="5" width="1" height="1" fill="#8dd122" stroke="#8dd122" stroke-width="0.05"></rect>
<rect x="13" y="5" width="1" height="1" fill="#8dd122" stroke="#8dd122" stroke-width="0.05"></rect>
<rect x="14" y="5" width="1" height="1" fill="#ffffff" stroke="#ffffff" stroke-width="0.05"></rect>
<rect x="15" y="5" width="1" height="1" fill="#000000" stroke="#000000" stroke-width="0.05"></rect>
<rect x="16" y="5" width="1" height="1" fill="#8dd122" stroke="#8dd122" stroke-width="0.05"></rect>
<rect x="17" y="5" width="1" height="1" fill="#321401" stroke="#321401" stroke-width="0.05"></rect>
<rect x="6" y="6" width="1" height="1" fill="#8dd122" stroke="#8dd122" stroke-width="0.05"></rect>
<rect x="7" y="6" width="1" height="1" fill="#321401" stroke="#321401" stroke-width="0.05"></rect>
<rect x="8" y="6" width="1" height="1" fill="#8dd122" stroke="#8dd122" stroke-width="0.05"></rect>
<rect x="9" y="6" width="1" height="1" fill="#ffffff" stroke="#ffffff" stroke-width="0.05"></rect>
<rect x="10" y="6" width="1" height="1" fill="#000000" stroke="#000000" stroke-width="0.05"></rect>
<rect x="11" y="6" width="1" height="1" fill="#8dd122" stroke="#8dd122" stroke-width="0.05"></rect>
<rect x="12" y="6" width="1" height="1" fill="#642802" stroke="#642802" stroke-width="0.05"></rect>
<rect x="13" y="6" width="1" height="1" fill="#8dd122" stroke="#8dd122" stroke-width="0.05"></rect>
<rect x="14" y="6" width="1" height="1" fill="#ffffff" stroke="#ffffff" stroke-width="0.05"></rect>
<rect x="15" y="6" width="1" height="1" fill="#000000" stroke="#000000" stroke-width="0.05"></rect>
<rect x="16" y="6" width="1" height="1" fill="#8dd122" stroke="#8dd122" stroke-width="0.05"></rect>
<rect x="17" y="6" width="1" height="1" fill="#321401" stroke="#321401" stroke-width="0.05"></rect>
<rect x="7" y="7" width="1" height="1" fill="#321401" stroke="#321401" stroke-width="0.05"></rect>
<rect x="8" y="7" width="1" height="1" fill="#8dd122" stroke="#8dd122" stroke-width="0.05"></rect>
<rect x="9" y="7" width="1" height="1" fill="#8dd122" stroke="#8dd122" stroke-width="0.05"></rect>
<rect x="10" y="7" width="1" height="1" fill="#8dd122" stroke="#8dd122" stroke-width="0.05"></rect>
<rect x="11" y="7" width="1" height="1" fill="#8dd122" stroke="#8dd122" stroke-width="0.05"></rect>
<rect x="12" y="7" width="1" height="1" fill="#fd9bb7" stroke="#fd9bb7" stroke-width="0.05"></rect>
<rect x="13" y="7" width="1" height="1" fill="#8dd122" stroke="#8dd122" stroke-width="0.05"></rect>
<rect x="14" y="7" width="1" height="1" fill="#8dd122" stroke="#8dd122" stroke-width="0.05"></rect>
<rect x="15" y="7" width="1" height="1" fill="#8dd122" stroke="#8dd122" stroke-width="0.05"></rect>
<rect x="16" y="7" width="1" height="1" fill="#8dd122" stroke="#8dd122" stroke-width="0.05"></rect>
<rect x="17" y="7" width="1" height="1" fill="#321401" stroke="#321401" stroke-width="0.05"></rect>
<rect x="7" y="8" width="1" height="1" fill="#321401" stroke="#321401" stroke-width="0.05"></rect>
<rect x="8" y="8" width="1" height="1" fill="#e15905" stroke="#e15905" stroke-width="0.05"></rect>
<rect x="9" y="8" width="1" height="1" fill="#e15905" stroke="#e15905" stroke-width="0.05"></rect>
<rect x="10" y="8" width="1" height="1" fill="#e15905" stroke="#e15905" stroke-width="0.05"></rect>
<rect x="11" y="8" width="1" height="1" fill="#fca169" stroke="#fca169" stroke-width="0.05"></rect>
<rect x="12" y="8" width="1" height="1" fill="#642802" stroke="#642802" stroke-width="0.05"></rect>
<rect x="13" y="8" width="1" height="1" fill="#fca169" stroke="#fca169" stroke-width="0.05"></rect>
<rect x="14" y="8" width="1" height="1" fill="#642802" stroke="#642802" stroke-width="0.05"></rect>
<rect x="15" y="8" width="1" height="1" fill="#642802" stroke="#642802" stroke-width="0.05"></rect>
<rect x="16" y="8" width="1" height="1" fill="#642802" stroke="#642802" stroke-width="0.05"></rect>
<rect x="17" y="8" width="1" height="1" fill="#321401" stroke="#321401" stroke-width="0.05"></rect>
<rect x="7" y="9" width="1" height="1" fill="#321401" stroke="#321401" stroke-width="0.05"></rect>
<rect x="8" y="9" width="1" height="1" fill="#321401" stroke="#321401" stroke-width="0.05"></rect>
<rect x="9" y="9" width="1" height="1" fill="#e15905" stroke="#e15905" stroke-width="0.05"></rect>
<rect x="10" y="9" width="1" height="1" fill="#e15905" stroke="#e15905" stroke-width="0.05"></rect>
<rect x="11" y="9" width="1" height="1" fill="#642802" stroke="#642802" stroke-width="0.05"></rect>
<rect x="12" y="9" width="1" height="1" fill="#642802" stroke="#642802" stroke-width="0.05"></rect>
<rect x="13" y="9" width="1" height="1" fill="#642802" stroke="#642802" stroke-width="0.05"></rect>
<rect x="14" y="9" width="1" height="1" fill="#642802" stroke="#642802" stroke-width="0.05"></rect>
<rect x="15" y="9" width="1" height="1" fill="#642802" stroke="#642802" stroke-width="0.05"></rect>
<rect x="16" y="9" width="1" height="1" fill="#321401" stroke="#321401" stroke-width="0.05"></rect>
<rect x="5" y="10" width="1" height="1" fill="#321401" stroke="#321401" stroke-width="0.05"></rect>
<rect x="6" y="10" width="1" height="1" fill="#321401" stroke="#321401" stroke-width="0.05"></rect>
<rect x="7" y="10" width="1" height="1" fill="#321401" stroke="#321401" stroke-width="0.05"></rect>
<rect x="8" y="10" width="1" height="1" fill="#e15905" stroke="#e15905" stroke-width="0.05"></rect>
<rect x="9" y="10" width="1" height="1" fill="#321401" stroke="#321401" stroke-width="0.05"></rect>
<rect x="10" y="10" width="1" height="1" fill="#321401" stroke="#321401" stroke-width="0.05"></rect>
<rect x="11" y="10" width="1" height="1" fill="#321401" stroke="#321401" stroke-width="0.05"></rect>
<rect x="12" y="10" width="1" height="1" fill="#321401" stroke="#321401" stroke-width="0.05"></rect>
<rect x="13" y="10" width="1" height="1" fill="#321401" stroke="#321401" stroke-width="0.05"></rect>
<rect x="14" y="10" width="1" height="1" fill="#321401" stroke="#321401" stroke-width="0.05"></rect>
<rect x="15" y="10" width="1" height="1" fill="#321401" stroke="#321401" stroke-width="0.05"></rect>
<rect x="16" y="10" width="1" height="1" fill="#e15905" stroke="#e15905" stroke-width="0.05"></rect>
<rect x="17" y="10" width="1" height="1" fill="#321401" stroke="#321401" stroke-width="0.05"></rect>
<rect x="18" y="10" width="1" height="1" fill="#321401" stroke="#321401" stroke-width="0.05"></rect>
<rect x="3" y="11" width="1" height="1" fill="#321401" stroke="#321401" stroke-width="0.05"></rect>
<rect x="4" y="11" width="1" height="1" fill="#321401" stroke="#321401" stroke-width="0.05"></rect>
<rect x="5" y="11" width="1" height="1" fill="#e15905" stroke="#e15905" stroke-width="0.05"></rect>
<rect x="6" y="11" width="1" height="1" fill="#321401" stroke="#321401" stroke-width="0.05"></rect>
<rect x="7" y="11" width="1" height="1" fill="#e15905" stroke="#e15905" stroke-width="0.05"></rect>
<rect x="8" y="11" width="1" height="1" fill="#e15905" stroke="#e15905" stroke-width="0.05"></rect>
<rect x="9" y="11" width="1" height="1" fill="#e15905" stroke="#e15905" stroke-width="0.05"></rect>
<rect x="10" y="11" width="1" height="1" fill="#e15905" stroke="#e15905" stroke-width="0.05"></rect>
<rect x="11" y="11" width="1" height="1" fill="#e15905" stroke="#e15905" stroke-width="0.05"></rect>
<rect x="12" y="11" width="1" height="1" fill="#e15905" stroke="#e15905" stroke-width="0.05"></rect>
<rect x="13" y="11" width="1" height="1" fill="#e15905" stroke="#e15905" stroke-width="0.05"></rect>
<rect x="14" y="11" width="1" height="1" fill="#e15905" stroke="#e15905" stroke-width="0.05"></rect>
<rect x="15" y="11" width="1" height="1" fill="#e15905" stroke="#e15905" stroke-width="0.05"></rect>
<rect x="16" y="11" width="1" height="1" fill="#e15905" stroke="#e15905" stroke-width="0.05"></rect>
<rect x="17" y="11" width="1" height="1" fill="#fd9bb7" stroke="#fd9bb7" stroke-width="0.05"></rect>
<rect x="18" y="11" width="1" height="1" fill="#321401" stroke="#321401" stroke-width="0.05"></rect>
<rect x="3" y="12" width="1" height="1" fill="#321401" stroke="#321401" stroke-width="0.05"></rect>
<rect x="4" y="12" width="1" height="1" fill="#e15905" stroke="#e15905" stroke-width="0.05"></rect>
<rect x="5" y="12" width="1" height="1" fill="#321401" stroke="#321401" stroke-width="0.05"></rect>
<rect x="6" y="12" width="1" height="1" fill="#321401" stroke="#321401" stroke-width="0.05"></rect>
<rect x="7" y="12" width="1" height="1" fill="#e15905" stroke="#e15905" stroke-width="0.05"></rect>
<rect x="8" y="12" width="1" height="1" fill="#e15905" stroke="#e15905" stroke-width="0.05"></rect>
<rect x="9" y="12" width="1" height="1" fill="#e15905" stroke="#e15905" stroke-width="0.05"></rect>
<rect x="10" y="12" width="1" height="1" fill="#642802" stroke="#642802" stroke-width="0.05"></rect>
<rect x="11" y="12" width="1" height="1" fill="#321401" stroke="#321401" stroke-width="0.05"></rect>
<rect x="12" y="12" width="1" height="1" fill="#321401" stroke="#321401" stroke-width="0.05"></rect>
<rect x="13" y="12" width="1" height="1" fill="#321401" stroke="#321401" stroke-width="0.05"></rect>
<rect x="14" y="12" width="1" height="1" fill="#e15905" stroke="#e15905" stroke-width="0.05"></rect>
<rect x="15" y="12" width="1" height="1" fill="#e15905" stroke="#e15905" stroke-width="0.05"></rect>
<rect x="16" y="12" width="1" height="1" fill="#321401" stroke="#321401" stroke-width="0.05"></rect>
<rect x="17" y="12" width="1" height="1" fill="#321401" stroke="#321401" stroke-width="0.05"></rect>
<rect x="18" y="12" width="1" height="1" fill="#321401" stroke="#321401" stroke-width="0.05"></rect>
<rect x="2" y="13" width="1" height="1" fill="#321401" stroke="#321401" stroke-width="0.05"></rect>
<rect x="3" y="13" width="1" height="1" fill="#321401" stroke="#321401" stroke-width="0.05"></rect>
<rect x="4" y="13" width="1" height="1" fill="#e15905" stroke="#e15905" stroke-width="0.05"></rect>
<rect x="5" y="13" width="1" height="1" fill="#321401" stroke="#321401" stroke-width="0.05"></rect>
<rect x="6" y="13" width="1" height="1" fill="#e15905" stroke="#e15905" stroke-width="0.05"></rect>
<rect x="7" y="13" width="1" height="1" fill="#e15905" stroke="#e15905" stroke-width="0.05"></rect>
<rect x="8" y="13" width="1" height="1" fill="#e15905" stroke="#e15905" stroke-width="0.05"></rect>
<rect x="9" y="13" width="1" height="1" fill="#642802" stroke="#642802" stroke-width="0.05"></rect>
<rect x="10" y="13" width="1" height="1" fill="#642802" stroke="#642802" stroke-width="0.05"></rect>
<rect x="11" y="13" width="1" height="1" fill="#642802" stroke="#642802" stroke-width="0.05"></rect>
<rect x="12" y="13" width="1" height="1" fill="#fd9bb7" stroke="#fd9bb7" stroke-width="0.05"></rect>
<rect x="13" y="13" width="1" height="1" fill="#321401" stroke="#321401" stroke-width="0.05"></rect>
<rect x="14" y="13" width="1" height="1" fill="#e15905" stroke="#e15905" stroke-width="0.05"></rect>
<rect x="15" y="13" width="1" height="1" fill="#321401" stroke="#321401" stroke-width="0.05"></rect>
<rect x="16" y="13" width="1" height="1" fill="#321401" stroke="#321401" stroke-width="0.05"></rect>
<rect x="2" y="14" width="1" height="1" fill="#321401" stroke="#321401" stroke-width="0.05"></rect>
<rect x="3" y="14" width="1" height="1" fill="#e15905" stroke="#e15905" stroke-width="0.05"></rect>
<rect x="4" y="14" width="1" height="1" fill="#321401" stroke="#321401" stroke-width="0.05"></rect>
<rect x="5" y="14" width="1" height="1" fill="#321401" stroke="#321401" stroke-width="0.05"></rect>
<rect x="6" y="14" width="1" height="1" fill="#e15905" stroke="#e15905" stroke-width="0.05"></rect>
<rect x="7" y="14" width="1" height="1" fill="#e15905" stroke="#e15905" stroke-width="0.05"></rect>
<rect x="8" y="14" width="1" height="1" fill="#e15905" stroke="#e15905" stroke-width="0.05"></rect>
<rect x="9" y="14" width="1" height="1" fill="#642802" stroke="#642802" stroke-width="0.05"></rect>
<rect x="10" y="14" width="1" height="1" fill="#642802" stroke="#642802" stroke-width="0.05"></rect>
<rect x="11" y="14" width="1" height="1" fill="#321401" stroke="#321401" stroke-width="0.05"></rect>
<rect x="12" y="14" width="1" height="1" fill="#321401" stroke="#321401" stroke-width="0.05"></rect>
<rect x="13" y="14" width="1" height="1" fill="#e15905" stroke="#e15905" stroke-width="0.05"></rect>
<rect x="14" y="14" width="1" height="1" fill="#e15905" stroke="#e15905" stroke-width="0.05"></rect>
<rect x="15" y="14" width="1" height="1" fill="#321401" stroke="#321401" stroke-width="0.05"></rect>
<rect x="2" y="15" width="1" height="1" fill="#321401" stroke="#321401" stroke-width="0.05"></rect>
<rect x="3" y="15" width="1" height="1" fill="#e15905" stroke="#e15905" stroke-width="0.05"></rect>
<rect x="4" y="15" width="1" height="1" fill="#321401" stroke="#321401" stroke-width="0.05"></rect>
<rect x="5" y="15" width="1" height="1" fill="#321401" stroke="#321401" stroke-width="0.05"></rect>
<rect x="6" y="15" width="1" height="1" fill="#e15905" stroke="#e15905" stroke-width="0.05"></rect>
<rect x="7" y="15" width="1" height="1" fill="#e15905" stroke="#e15905" stroke-width="0.05"></rect>
<rect x="8" y="15" width="1" height="1" fill="#e15905" stroke="#e15905" stroke-width="0.05"></rect>
<rect x="9" y="15" width="1" height="1" fill="#e15905" stroke="#e15905" stroke-width="0.05"></rect>
<rect x="10" y="15" width="1" height="1" fill="#e15905" stroke="#e15905" stroke-width="0.05"></rect>
<rect x="11" y="15" width="1" height="1" fill="#fca169" stroke="#fca169" stroke-width="0.05"></rect>
<rect x="12" y="15" width="1" height="1" fill="#fca169" stroke="#fca169" stroke-width="0.05"></rect>
<rect x="13" y="15" width="1" height="1" fill="#fca169" stroke="#fca169" stroke-width="0.05"></rect>
<rect x="14" y="15" width="1" height="1" fill="#e15905" stroke="#e15905" stroke-width="0.05"></rect>
<rect x="15" y="15" width="1" height="1" fill="#321401" stroke="#321401" stroke-width="0.05"></rect>
<rect x="2" y="16" width="1" height="1" fill="#321401" stroke="#321401" stroke-width="0.05"></rect>
<rect x="3" y="16" width="1" height="1" fill="#642802" stroke="#642802" stroke-width="0.05"></rect>
<rect x="4" y="16" width="1" height="1" fill="#642802" stroke="#642802" stroke-width="0.05"></rect>
<rect x="5" y="16" width="1" height="1" fill="#321401" stroke="#321401" stroke-width="0.05"></rect>
<rect x="6" y="16" width="1" height="1" fill="#642802" stroke="#642802" stroke-width="0.05"></rect>
<rect x="7" y="16" width="1" height="1" fill="#321401" stroke="#321401" stroke-width="0.05"></rect>
<rect x="8" y="16" width="1" height="1" fill="#321401" stroke="#321401" stroke-width="0.05"></rect>
<rect x="9" y="16" width="1" height="1" fill="#321401" stroke="#321401" stroke-width="0.05"></rect>
<rect x="10" y="16" width="1" height="1" fill="#e15905" stroke="#e15905" stroke-width="0.05"></rect>
<rect x="11" y="16" width="1" height="1" fill="#fca169" stroke="#fca169" stroke-width="0.05"></rect>
<rect x="12" y="16" width="1" height="1" fill="#fca169" stroke="#fca169" stroke-width="0.05"></rect>
<rect x="13" y="16" width="1" height="1" fill="#fca169" stroke="#fca169" stroke-width="0.05"></rect>
<rect x="14" y="16" width="1" height="1" fill="#321401" stroke="#321401" stroke-width="0.05"></rect>
<rect x="15" y="16" width="1" height="1" fill="#321401" stroke="#321401" stroke-width="0.05"></rect>
<rect x="2" y="17" width="1" height="1" fill="#321401" stroke="#321401" stroke-width="0.05"></rect>
<rect x="3" y="17" width="1" height="1" fill="#321401" stroke="#321401" stroke-width="0.05"></rect>
<rect x="4" y="17" width="1" height="1" fill="#642802" stroke="#642802" stroke-width="0.05"></rect>
<rect x="5" y="17" width="1" height="1" fill="#321401" stroke="#321401" stroke-width="0.05"></rect>
<rect x="6" y="17" width="1" height="1" fill="#642802" stroke="#642802" stroke-width="0.05"></rect>
<rect x="7" y="17" width="1" height="1" fill="#642802" stroke="#642802" stroke-width="0.05"></rect>
<rect x="8" y="17" width="1" height="1" fill="#e15905" stroke="#e15905" stroke-width="0.05"></rect>
<rect x="9" y="17" width="1" height="1" fill="#321401" stroke="#321401" stroke-width="0.05"></rect>
<rect x="10" y="17" width="1" height="1" fill="#e15905" stroke="#e15905" stroke-width="0.05"></rect>
<rect x="11" y="17" width="1" height="1" fill="#fca169" stroke="#fca169" stroke-width="0.05"></rect>
<rect x="12" y="17" width="1" height="1" fill="#fca169" stroke="#fca169" stroke-width="0.05"></rect>
<rect x="13" y="17" width="1" height="1" fill="#fca169" stroke="#fca169" stroke-width="0.05"></rect>
<rect x="14" y="17" width="1" height="1" fill="#321401" stroke="#321401" stroke-width="0.05"></rect>
<rect x="3" y="18" width="1" height="1" fill="#321401" stroke="#321401" stroke-width="0.05"></rect>
<rect x="4" y="18" width="1" height="1" fill="#321401" stroke="#321401" stroke-width="0.05"></rect>
<rect x="5" y="18" width="1" height="1" fill="#642802" stroke="#642802" stroke-width="0.05"></rect>
<rect x="6" y="18" width="1" height="1" fill="#642802" stroke="#642802" stroke-width="0.05"></rect>
<rect x="7" y="18" width="1" height="1" fill="#642802" stroke="#642802" stroke-width="0.05"></rect>
<rect x="8" y="18" width="1" height="1" fill="#e15905" stroke="#e15905" stroke-width="0.05"></rect>
<rect x="9" y="18" width="1" height="1" fill="#e15905" stroke="#e15905" stroke-width="0.05"></rect>
<rect x="10" y="18" width="1" height="1" fill="#e15905" stroke="#e15905" stroke-width="0.05"></rect>
<rect x="11" y="18" width="1" height="1" fill="#fca169" stroke="#fca169" stroke-width="0.05"></rect>
<rect x="12" y="18" width="1" height="1" fill="#fca169" stroke="#fca169" stroke-width="0.05"></rect>
<rect x="13" y="18" width="1" height="1" fill="#642802" stroke="#642802" stroke-width="0.05"></rect>
<rect x="14" y="18" width="1" height="1" fill="#321401" stroke="#321401" stroke-width="0.05"></rect>
<rect x="4" y="19" width="1" height="1" fill="#321401" stroke="#321401" stroke-width="0.05"></rect>
<rect x="5" y="19" width="1" height="1" fill="#321401" stroke="#321401" stroke-width="0.05"></rect>
<rect x="6" y="19" width="1" height="1" fill="#321401" stroke="#321401" stroke-width="0.05"></rect>
<rect x="7" y="19" width="1" height="1" fill="#642802" stroke="#642802" stroke-width="0.05"></rect>
<rect x="8" y="19" width="1" height="1" fill="#e15905" stroke="#e15905" stroke-width="0.05"></rect>
<rect x="9" y="19" width="1" height="1" fill="#e15905" stroke="#e15905" stroke-width="0.05"></rect>
<rect x="10" y="19" width="1" height="1" fill="#321401" stroke="#321401" stroke-width="0.05"></rect>
<rect x="11" y="19" width="1" height="1" fill="#321401" stroke="#321401" stroke-width="0.05"></rect>
<rect x="12" y="19" width="1" height="1" fill="#642802" stroke="#642802" stroke-width="0.05"></rect>
<rect x="13" y="19" width="1" height="1" fill="#642802" stroke="#642802" stroke-width="0.05"></rect>
<rect x="14" y="19" width="1" height="1" fill="#321401" stroke="#321401" stroke-width="0.05"></rect>
<rect x="6" y="20" width="1" height="1" fill="#321401" stroke="#321401" stroke-width="0.05"></rect>
<rect x="7" y="20" width="1" height="1" fill="#642802" stroke="#642802" stroke-width="0.05"></rect>
<rect x="8" y="20" width="1" height="1" fill="#321401" stroke="#321401" stroke-width="0.05"></rect>
<rect x="9" y="20" width="1" height="1" fill="#321401" stroke="#321401" stroke-width="0.05"></rect>
<rect x="10" y="20" width="1" height="1" fill="#321401" stroke="#321401" stroke-width="0.05"></rect>
<rect x="11" y="20" width="1" height="1" fill="#321401" stroke="#321401" stroke-width="0.05"></rect>
<rect x="12" y="20" width="1" height="1" fill="#fd9bb7" stroke="#fd9bb7" stroke-width="0.05"></rect>
<rect x="13" y="20" width="1" height="1" fill="#321401" stroke="#321401" stroke-width="0.05"></rect>
<rect x="14" y="20" width="1" height="1" fill="#321401" stroke="#321401" stroke-width="0.05"></rect>
<rect x="6" y="21" width="1" height="1" fill="#321401" stroke="#321401" stroke-width="0.05"></rect>
<rect x="7" y="21" width="1" height="1" fill="#321401" stroke="#321401" stroke-width="0.05"></rect>
<rect x="8" y="21" width="1" height="1" fill="#321401" stroke="#321401" stroke-width="0.05"></rect>
<rect x="12" y="21" width="1" height="1" fill="#321401" stroke="#321401" stroke-width="0.05"></rect>
<rect x="13" y="21" width="1" height="1" fill="#321401" stroke="#321401" stroke-width="0.05"></rect>
</svg>
